<?xml version="1.0" encoding="UTF-8"?>
<svg version="1.1" xmlns="http://www.w3.org/2000/svg" width="650" height="650">
<path d="M0 0 C0.95238556 -0.0033284 1.90477112 -0.0066568 2.88601685 -0.01008606 C4.90154541 -0.0151381 6.9170823 -0.01749492 8.93261719 -0.01733398 C11.96303813 -0.01949926 14.9930819 -0.03761442 18.0234375 -0.05664062 C51.4686899 -0.15571554 51.4686899 -0.15571554 60.1328125 6.16796875 C60.4628125 7.15796875 60.7928125 8.14796875 61.1328125 9.16796875 C59.86748204 11.69862967 58.61573757 13.70436068 56.5703125 15.66796875 C54.95301877 17.13041146 54.95301877 17.13041146 54.41796875 19.5 C52.67299998 23.12253394 50.54195655 24.2523741 47.1328125 26.35546875 C46.22740723 26.91814453 46.22740723 26.91814453 45.30371094 27.4921875 C36.80082356 32.70626266 28.05597377 37.70638812 19.1328125 42.16796875 C18.66529462 44.5239611 18.66529462 44.5239611 18.5078125 47.23046875 C18.43304688 48.14957031 18.35828125 49.06867188 18.28125 50.015625 C18.20777344 51.08103516 18.20777344 51.08103516 18.1328125 52.16796875 C18.79925781 52.19375 19.46570313 52.21953125 20.15234375 52.24609375 C28.49484732 52.75947859 36.62735338 54.36699941 43.4453125 59.48046875 C46.02756819 61.44492679 46.02756819 61.44492679 49.1328125 61.10546875 C52.34480209 60.101722 55.15490811 58.72460059 58.1328125 57.16796875 C58.7928125 57.16796875 59.4528125 57.16796875 60.1328125 57.16796875 C60.2875 56.02328125 60.2875 56.02328125 60.4453125 54.85546875 C61.22212485 51.81883867 61.61883733 50.98073183 64.1328125 49.16796875 C67.34765625 48.69921875 67.34765625 48.69921875 71.0703125 48.66796875 C72.90916016 48.6215625 72.90916016 48.6215625 74.78515625 48.57421875 C78.1328125 49.16796875 78.1328125 49.16796875 80.5625 51.33203125 C82.36848261 54.59358193 82.52642462 56.35212385 82.3203125 60.04296875 C82.15690365 64.60714686 82.31727166 68.68249411 83.1328125 73.16796875 C83.7928125 73.16796875 84.4528125 73.16796875 85.1328125 73.16796875 C85.80339137 74.95817485 86.4691594 76.75018364 87.1328125 78.54296875 C87.5040625 79.54070312 87.8753125 80.5384375 88.2578125 81.56640625 C89.1328125 84.16796875 89.1328125 84.16796875 89.1328125 86.16796875 C90.2775 86.53921875 90.2775 86.53921875 91.4453125 86.91796875 C94.41072945 88.29723245 95.51641523 89.3605419 97.1328125 92.16796875 C97.1328125 93.15796875 97.1328125 94.14796875 97.1328125 95.16796875 C98.0609375 95.16796875 98.9890625 95.16796875 99.9453125 95.16796875 C103.1328125 96.16796875 103.1328125 96.16796875 104.1640625 97.76953125 C104.97977715 99.88223221 105.58185379 101.97200475 106.1328125 104.16796875 C106.4834375 105.32296875 106.8340625 106.47796875 107.1953125 107.66796875 C107.11650248 112.08132993 105.93178253 114.09295239 103.1328125 117.4296875 C98.40314273 121.54043564 92.50608678 122.48807246 86.3828125 122.16796875 C81.81157533 121.39126296 79.18621047 119.74267857 76.1328125 116.16796875 C73.90196975 110.83873328 73.99807262 105.8083317 74.84375 100.18359375 C75.20379174 98.01240692 75.20379174 98.01240692 75.1328125 95.16796875 C75.1328125 93.16796875 75.1328125 93.16796875 76.1328125 92.16796875 C76.19516311 86.46912274 74.87422498 81.90934285 72.0703125 76.9921875 C71.08216925 75.06942542 70.57965954 73.27652823 70.1328125 71.16796875 C65.68641397 69.21860182 65.68641397 69.21860182 61.109375 69.92578125 C59.3994828 70.92379996 57.75942681 72.0392976 56.1328125 73.16796875 C56.39835937 73.73902344 56.66390625 74.31007813 56.9375 74.8984375 C62.04548293 86.62442752 64.90628889 101.62330773 60.1640625 113.91796875 C54.58657248 126.08703788 46.64251493 134.13383979 34.1328125 139.16796875 C22.89988432 142.44787149 7.45244433 141.53105014 -2.8671875 136.16796875 C-6.37544782 134.03229051 -9.63638451 131.70005834 -12.8671875 129.16796875 C-13.7746875 128.50796875 -14.6821875 127.84796875 -15.6171875 127.16796875 C-18.67306312 124.45163487 -21.48138237 121.49661783 -23.8671875 118.16796875 C-23.8671875 117.50796875 -23.8671875 116.84796875 -23.8671875 116.16796875 C-26.78352879 115.91775305 -26.78352879 115.91775305 -29.8671875 116.16796875 C-30.5271875 117.15796875 -31.1871875 118.14796875 -31.8671875 119.16796875 C-34.1796875 119.10546875 -34.1796875 119.10546875 -36.8671875 118.16796875 C-40.26514775 112.24373401 -40.32307425 106.82356278 -40.2421875 100.10546875 C-40.25378906 99.13802734 -40.26539063 98.17058594 -40.27734375 97.17382812 C-40.25522429 91.78774048 -39.97811087 87.77758513 -36.8671875 83.16796875 C-34.8046875 82.16796875 -34.8046875 82.16796875 -32.8671875 82.16796875 C-31.8771875 83.15796875 -31.8771875 83.15796875 -30.8671875 84.16796875 C-28.29657439 84.81564668 -28.29657439 84.81564668 -25.8671875 85.16796875 C-25.6815625 84.08515625 -25.6815625 84.08515625 -25.4921875 82.98046875 C-24.8766944 80.21074981 -23.98274376 77.77093335 -22.8671875 75.16796875 C-25.94169148 72.83879907 -27.58117564 72.17289999 -31.4921875 72.10546875 C-35.12801341 72.85098116 -35.12801341 72.85098116 -36.8046875 76.23046875 C-37.330625 77.68453125 -37.330625 77.68453125 -37.8671875 79.16796875 C-38.5271875 79.16796875 -39.1871875 79.16796875 -39.8671875 79.16796875 C-41.69547148 83.68490565 -41.83658224 86.42870556 -40.8671875 91.16796875 C-41.1971875 91.82796875 -41.5271875 92.48796875 -41.8671875 93.16796875 C-42.01989393 94.58191719 -42.14086203 95.99941223 -42.2421875 97.41796875 C-42.71535236 101.62237648 -43.23935601 104.71893991 -45.8671875 108.16796875 C-50.25210535 110.64106242 -53.71844287 111.37511942 -58.6796875 110.48046875 C-61.14582605 109.46499994 -63.54121621 108.47051267 -65.8671875 107.16796875 C-65.8671875 106.50796875 -65.8671875 105.84796875 -65.8671875 105.16796875 C-66.5271875 105.16796875 -67.1871875 105.16796875 -67.8671875 105.16796875 C-69.68345114 102.49699281 -69.86544796 101.13723696 -69.6796875 97.85546875 C-68.80597269 93.89014768 -67.87897904 90.70594697 -65.8671875 87.16796875 C-62.9296875 85.98046875 -62.9296875 85.98046875 -59.8671875 85.16796875 C-58.49408043 83.87563268 -57.15683926 82.54359729 -55.8671875 81.16796875 C-54.54151551 80.48619459 -53.20965062 79.81605439 -51.8671875 79.16796875 C-51.5371875 78.50796875 -51.2071875 77.84796875 -50.8671875 77.16796875 C-50.2071875 77.16796875 -49.5471875 77.16796875 -48.8671875 77.16796875 C-48.7640625 76.42546875 -48.6609375 75.68296875 -48.5546875 74.91796875 C-47.8671875 72.16796875 -47.8671875 72.16796875 -46.35546875 70.375 C-43.95855521 66.82052192 -44.39746953 63.12622538 -44.2734375 58.9453125 C-43.8671875 56.16796875 -43.8671875 56.16796875 -42.64453125 54.32421875 C-39.10708364 52.02293415 -34.90398751 52.5657576 -30.8671875 53.16796875 C-28.3046875 54.91796875 -28.3046875 54.91796875 -26.8671875 57.16796875 C-26.7434375 57.86921875 -26.6196875 58.57046875 -26.4921875 59.29296875 C-26.2859375 59.91171875 -26.0796875 60.53046875 -25.8671875 61.16796875 C-23.08893294 62.45573028 -23.08893294 62.45573028 -19.8671875 63.16796875 C-18.6915625 63.66296875 -18.6915625 63.66296875 -17.4921875 64.16796875 C-13.67992531 64.16796875 -11.94329247 62.15295268 -9.05859375 59.8046875 C-4.89474529 56.69478998 -0.11375678 54.16796875 5.1328125 54.16796875 C5.1328125 52.18796875 5.1328125 50.20796875 5.1328125 48.16796875 C3.8953125 48.60109375 3.8953125 48.60109375 2.6328125 49.04296875 C-6.51157979 51.9822377 -15.25997791 53.58816495 -24.8671875 52.16796875 C-29.69430224 49.52374506 -31.85298186 47.31538317 -33.8671875 42.16796875 C-33.8671875 41.50796875 -33.8671875 40.84796875 -33.8671875 40.16796875 C-35.1871875 39.83796875 -36.5071875 39.50796875 -37.8671875 39.16796875 C-37.94850937 36.60482376 -38.00782925 34.04428457 -38.0546875 31.48046875 C-38.07982422 30.75923828 -38.10496094 30.03800781 -38.13085938 29.29492188 C-38.19492708 24.61797954 -37.54790097 21.96620049 -34.8671875 18.16796875 C-34.37213492 16.84782854 -33.91025459 15.51447056 -33.4921875 14.16796875 C-31.98645582 10.12226544 -30.39804092 7.81610882 -26.8671875 5.16796875 C-17.95254781 1.13936822 -9.67656289 0.01192293 0 0 Z M-59.8671875 95.16796875 C-61.86504185 99.28854335 -62.04554265 102.6199124 -61.8671875 107.16796875 C-61.5371875 106.50796875 -61.2071875 105.84796875 -60.8671875 105.16796875 C-59.53385417 104.83463542 -58.20052083 104.50130208 -56.8671875 104.16796875 C-54.13736918 102.8139623 -54.13736918 102.8139623 -51.8671875 101.16796875 C-51.8671875 100.50796875 -51.8671875 99.84796875 -51.8671875 99.16796875 C-52.8159375 98.69359375 -53.7646875 98.21921875 -54.7421875 97.73046875 C-56.45052083 96.87630208 -58.15885417 96.02213542 -59.8671875 95.16796875 Z M95.1328125 104.16796875 C89.56563717 106.52253198 89.56563717 106.52253198 84.1328125 109.16796875 C87.56643152 112.80356536 90.9301732 115.52910221 95.1328125 118.16796875 C97.22222118 115.03385573 97.40645662 114.19346403 97.3828125 110.60546875 C97.38796875 109.82042969 97.393125 109.03539062 97.3984375 108.2265625 C97.31710512 105.94505907 97.31710512 105.94505907 95.1328125 104.16796875 Z " fill="#C46B1B" transform="translate(310.8671875,352.83203125)"/>
<path d="M0 0 C2.31 0 4.62 0 7 0 C6.03250577 2.15825637 5.21906689 3.7900609 3.5 5.4375 C1.82407036 6.9488161 1.82407036 6.9488161 1.28125 9.3359375 C-0.46027993 12.95704545 -2.59337757 14.08596093 -6 16.1875 C-6.90540527 16.75017578 -6.90540527 16.75017578 -7.82910156 17.32421875 C-16.33198894 22.53829391 -25.07683873 27.53841937 -34 32 C-34.46751788 34.35599235 -34.46751788 34.35599235 -34.625 37.0625 C-34.69976562 37.98160156 -34.77453125 38.90070313 -34.8515625 39.84765625 C-34.90054688 40.55792969 -34.94953125 41.26820313 -35 42 C-34.33355469 42.02578125 -33.66710937 42.0515625 -32.98046875 42.078125 C-24.63796518 42.59150984 -16.50545912 44.19903066 -9.6875 49.3125 C-7.10524431 51.27695804 -7.10524431 51.27695804 -4 50.9375 C-0.78801041 49.93375325 2.02209561 48.55663184 5 47 C5.66 47 6.32 47 7 47 C7.103125 46.236875 7.20625 45.47375 7.3125 44.6875 C8.08931235 41.65086992 8.48602483 40.81276308 11 39 C14.21484375 38.53125 14.21484375 38.53125 17.9375 38.5 C19.77634766 38.45359375 19.77634766 38.45359375 21.65234375 38.40625 C25 39 25 39 27.4296875 41.1640625 C29.23567011 44.42561318 29.39361212 46.1841551 29.1875 49.875 C29.02409115 54.43917811 29.18445916 58.51452536 30 63 C30.66 63 31.32 63 32 63 C32.67057887 64.7902061 33.3363469 66.58221489 34 68.375 C34.37125 69.37273437 34.7425 70.37046875 35.125 71.3984375 C36 74 36 74 36 76 C37.1446875 76.37125 37.1446875 76.37125 38.3125 76.75 C41.27791695 78.1292637 42.38360273 79.19257315 44 82 C44 82.99 44 83.98 44 85 C44.928125 85 45.85625 85 46.8125 85 C50 86 50 86 51.03125 87.6015625 C51.84696465 89.71426346 52.44904129 91.804036 53 94 C53.350625 95.155 53.70125 96.31 54.0625 97.5 C53.98368998 101.91336118 52.79897003 103.92498364 50 107.26171875 C45.27033023 111.37246689 39.37327428 112.32010371 33.25 112 C28.67876283 111.22329421 26.05339797 109.57470982 23 106 C20.76915725 100.67076453 20.86526012 95.64036295 21.7109375 90.015625 C22.07097924 87.84443817 22.07097924 87.84443817 22 85 C22 83 22 83 23 82 C23.06235061 76.30115399 21.74141248 71.7413741 18.9375 66.82421875 C17.94935675 64.90145667 17.44684704 63.10855948 17 61 C12.55360147 59.05063307 12.55360147 59.05063307 7.9765625 59.7578125 C6.2666703 60.75583121 4.62661431 61.87132885 3 63 C3.39832031 63.85658203 3.39832031 63.85658203 3.8046875 64.73046875 C8.947032 76.53533988 11.79559636 91.84669556 7.10546875 104.265625 C6 106 6 106 2.75 107.3125 C1.5125 107.539375 0.275 107.76625 -1 108 C-2.70533078 108.9946061 -4.41033421 109.98979114 -6.11181641 110.9909668 C-15.93462865 116.24021467 -28.66958484 116.50157437 -39.50411987 116.7598877 C-41.45879983 116.81141394 -43.412298 116.90284289 -45.36547852 116.99511719 C-52.41913872 117.04130709 -56.3032558 116.43787248 -61.53125 111.51171875 C-62.62276367 110.28714966 -62.62276367 110.28714966 -63.73632812 109.0378418 C-66.47556921 106.57187488 -68.38095706 106.29000407 -72 106 C-71.67 105.01 -71.34 104.02 -71 103 C-67.7 103 -64.4 103 -61 103 C-60.86476675 99.76942783 -60.76578454 96.5445331 -60.6875 93.3125 C-60.64560547 92.40048828 -60.60371094 91.48847656 -60.56054688 90.54882812 C-60.44282292 84.77337809 -60.44282292 84.77337809 -63.45703125 79.91796875 C-64.29621094 79.28503906 -65.13539063 78.65210938 -66 78 C-66.495 77.505 -66.495 77.505 -67 77 C-69.32817964 76.63239269 -71.6618385 76.29758419 -74 76 C-74 74.35 -74 72.7 -74 71 C-73.4225 70.95875 -72.845 70.9175 -72.25 70.875 C-68.86687535 69.55934042 -67.80777315 67.03447636 -66 64 C-60.49448143 64.67611632 -57.76813916 65.68199701 -54.25 70.0625 C-48.21030059 78.64740303 -45 87.46633517 -45 98 C-40.05 98 -35.1 98 -30 98 C-30.144375 96.83082031 -30.28875 95.66164063 -30.4375 94.45703125 C-30.62515554 92.90887301 -30.8126469 91.36069487 -31 89.8125 C-31.14308594 88.65911133 -31.14308594 88.65911133 -31.2890625 87.48242188 C-31.75192894 83.63071189 -32.12467468 79.88829149 -32 76 C-28.75870049 80.86194927 -28.86705161 85.01658508 -28.9375 90.75 C-28.94201172 91.44738281 -28.94652344 92.14476562 -28.95117188 92.86328125 C-28.9628998 94.57555803 -28.98083347 96.28779033 -29 98 C-26.58179317 97.54884201 -24.16567137 97.08938045 -21.75 96.625 C-21.06808594 96.49867188 -20.38617188 96.37234375 -19.68359375 96.2421875 C-16.13454636 95.55305208 -13.18598434 94.67683386 -10 93 C-7.33646245 92.48479018 -4.70500869 92.27050087 -2 92 C-1.505 90.515 -1.505 90.515 -1 89 C0.95597184 87.60287726 2.95436401 86.26220093 5 85 C4.66569599 77.43781278 4.12892533 70.93805182 1 64 C-0.66842534 64.32441604 -2.33480481 64.65939189 -4 65 C-4.68320312 65.08507812 -5.36640625 65.17015625 -6.0703125 65.2578125 C-8.19424527 65.82342738 -8.19424527 65.82342738 -8.9765625 67.99609375 C-9.19054687 68.80175781 -9.40453125 69.60742188 -9.625 70.4375 C-10.82119205 74.82119205 -10.82119205 74.82119205 -13 77 C-15.625 77.125 -15.625 77.125 -18 77 C-21.76398205 70.76590473 -23.2596267 65.30810448 -22 58 C-20.828125 55.65625 -20.828125 55.65625 -19 54 C-16.30078125 53.828125 -16.30078125 53.828125 -13.3125 54.25 C-11.82169922 54.44335938 -11.82169922 54.44335938 -10.30078125 54.640625 C-9.54152344 54.75921875 -8.78226562 54.8778125 -8 55 C-10.71604715 52.12579877 -10.71604715 52.12579877 -14 50 C-14 49.34 -14 48.68 -14 48 C-28.21799711 45.17020446 -42.29416228 46.71214016 -56 51 C-55.67 50.34 -55.34 49.68 -55 49 C-52.04179941 48.09408602 -49.03989563 47.59941604 -46 47 C-46.33 43.37 -46.66 39.74 -47 36 C-44.03 35.01 -41.06 34.02 -38 33 C-38 32.34 -38 31.68 -38 31 C-37.4423999 30.71914551 -36.8847998 30.43829102 -36.31030273 30.14892578 C-24.35670792 24.0953847 -12.940064 17.74711137 -2 10 C-4.98653069 10 -6.53566264 10.44885333 -9.28125 11.49609375 C-10.11793213 11.80699951 -10.95461426 12.11790527 -11.81665039 12.43823242 C-12.70215576 12.76799072 -13.58766113 13.09774902 -14.5 13.4375 C-20.94854037 15.7813284 -26.67598797 17.53765021 -33.578125 17.7734375 C-37.32515075 18.12396572 -40.56287874 19.51907682 -44.046875 20.8828125 C-52.80372043 24.19558736 -61.62912501 26.56816244 -71 27 C-71 27.66 -71 28.32 -71 29 C-75.62197306 31.21854707 -78.76824163 32.38281159 -84 32 C-84.66 30.68 -85.32 29.36 -86 28 C-84.68 28 -83.36 28 -82 28 C-80.85017398 23.90996141 -80.88905744 19.96822949 -80.9375 15.75 C-80.94201172 15.00492187 -80.94652344 14.25984375 -80.95117188 13.4921875 C-80.96290754 11.6614236 -80.9808415 9.83070127 -81 8 C-81.99 8 -82.98 8 -84 8 C-83.67 6.35 -83.34 4.7 -83 3 C-81.35 3.33 -79.7 3.66 -78 4 C-76.24789591 10.47652761 -75.81106115 16.29267094 -76 23 C-73.03 22.67 -70.06 22.34 -67 22 C-67 21.34 -67 20.68 -67 20 C-50.61296107 14.96670082 -50.61296107 14.96670082 -44.5 14 C-34.34540459 12.35414815 -24.13393694 9.26713858 -14.84765625 4.84765625 C-9.9189334 2.58648742 -5.3880599 1.73716781 0 2 C0 1.34 0 0.68 0 0 Z M42 94 C36.43282467 96.35456323 36.43282467 96.35456323 31 99 C34.43361902 102.63559661 37.7973607 105.36113346 42 108 C44.08940868 104.86588698 44.27364412 104.02549528 44.25 100.4375 C44.25515625 99.65246094 44.2603125 98.86742187 44.265625 98.05859375 C44.18429262 95.77709032 44.18429262 95.77709032 42 94 Z " fill="#443729" transform="translate(364,363)"/>
<path d="M0 0 C0.90443848 -0.00136963 1.80887695 -0.00273926 2.74072266 -0.00415039 C7.22029117 0.07010355 10.87528394 0.26366109 14.9375 2.375 C14.9375 3.035 14.9375 3.695 14.9375 4.375 C15.72125 4.643125 16.505 4.91125 17.3125 5.1875 C19.9375 6.375 19.9375 6.375 21.9375 9.375 C17.68183453 10.53563604 14.2539922 10.13673392 9.9375 9.375 C6.96046148 13.84055778 7.43468498 18.13552176 7.9375 23.375 C8.70338681 25.95599426 9.66284548 27.98502277 10.9375 30.375 C12.5875 30.375 14.2375 30.375 15.9375 30.375 C17.41857451 27.48017255 18.82498996 24.72860297 19.8125 21.625 C20.9375 19.375 20.9375 19.375 23.25 18 C26.45338162 17.25502753 27.93453053 16.95254078 30.9375 18.375 C34.26498909 24.55462259 35.82407048 32.39325748 34.9375 39.375 C32.58203125 41.6328125 32.58203125 41.6328125 29.9375 43.375 C29.174375 44.07625 28.41125 44.7775 27.625 45.5 C24.88370721 47.41252985 22.57227281 48.18484357 19.3203125 48.87109375 C15.43328417 49.69310466 11.60960795 50.77242358 7.76953125 51.7890625 C5.06459394 52.3487047 2.6891455 52.48566947 -0.0625 52.375 C-0.12308594 51.31539063 -0.18367188 50.25578125 -0.24609375 49.1640625 C-0.33050127 47.77602779 -0.41514917 46.38800768 -0.5 45 C-0.53931641 44.30132812 -0.57863281 43.60265625 -0.61914062 42.8828125 C-0.80530134 39.00139508 -0.80530134 39.00139508 -2.0625 35.375 C-1.815 36.798125 -1.815 36.798125 -1.5625 38.25 C-0.87535531 42.9632319 -0.99735542 47.61944585 -1.0625 52.375 C-6.0125 52.375 -10.9625 52.375 -16.0625 52.375 C-16.29324219 51.33601563 -16.52398437 50.29703125 -16.76171875 49.2265625 C-19.10300833 39.06756069 -21.65659628 29.1384301 -29.0625 21.375 C-32.29137697 19.92847528 -32.29137697 19.92847528 -35.8125 19.0625 C-36.98296875 18.73636719 -38.1534375 18.41023438 -39.359375 18.07421875 C-40.25140625 17.84347656 -41.1434375 17.61273438 -42.0625 17.375 C-40.77243185 13.5768298 -39.37374272 11.28793067 -36.375 8.625 C-35.73175781 8.03203125 -35.08851563 7.4390625 -34.42578125 6.828125 C-31.33983002 4.93064755 -28.64124023 4.79671101 -25.0625 4.375 C-23.01270021 3.71214267 -20.97110339 3.02349667 -18.9375 2.3125 C-12.55488493 0.42313601 -6.64507824 -0.00401758 0 0 Z " fill="#E3BD20" transform="translate(335.0625,408.625)"/>
<path d="M0 0 C0.33 0.66 0.66 1.32 1 2 C0.22265625 4.1640625 0.22265625 4.1640625 -0.9375 6.625 C-1.31777344 7.44226563 -1.69804687 8.25953125 -2.08984375 9.1015625 C-2.39019531 9.72804688 -2.69054687 10.35453125 -3 11 C-2.34 11 -1.68 11 -1 11 C-0.67 10.34 -0.34 9.68 0 9 C0 10.32 0 11.64 0 13 C1.03125 12.896875 2.0625 12.79375 3.125 12.6875 C8.19970101 13.09675008 9.46272683 14.46272683 13 18 C14.56380504 21.12761008 14.14320695 24.44602516 14.125 27.875 C14.13080078 28.95587891 14.13080078 28.95587891 14.13671875 30.05859375 C14.13036598 33.50815011 14.08702974 36.70440191 13 40 C12.28972656 40.04898438 11.57945312 40.09796875 10.84765625 40.1484375 C9.92855469 40.22320312 9.00945312 40.29796875 8.0625 40.375 C7.14597656 40.44460938 6.22945313 40.51421875 5.28515625 40.5859375 C4.15400391 40.79089844 4.15400391 40.79089844 3 41 C2.67 41.66 2.34 42.32 2 43 C2.845625 42.855625 3.69125 42.71125 4.5625 42.5625 C9.05762305 43.13460657 10.45009655 44.99252166 13.38671875 48.2734375 C15.69790156 50.74690676 17.36982037 51.93007291 20.76123047 52.30639648 C24.46628777 52.37782382 28.16930034 52.43772345 31.875 52.4375 C32.88143555 52.44009827 32.88143555 52.44009827 33.90820312 52.44274902 C48.34782585 52.42637171 62.81784613 51.28669769 75 43 C76.32 43 77.64 43 79 43 C76.75588697 51.11424027 70.9701964 57.31869516 64 61.9375 C56.40009745 66.06029044 49.29906064 67.53775375 40.6875 67.4375 C39.76541748 67.42920166 38.84333496 67.42090332 37.89331055 67.41235352 C25.8238435 67.11409301 17.44362205 63.40128605 8 56 C7.0925 55.34 6.185 54.68 5.25 54 C2.19412438 51.28366612 -0.61419487 48.32864908 -3 45 C-3 44.34 -3 43.68 -3 43 C-5.91634129 42.7497843 -5.91634129 42.7497843 -9 43 C-9.66 43.99 -10.32 44.98 -11 46 C-13.3125 45.9375 -13.3125 45.9375 -16 45 C-19.39796025 39.07576526 -19.45588675 33.65559403 -19.375 26.9375 C-19.39240234 25.48633789 -19.39240234 25.48633789 -19.41015625 24.00585938 C-19.38803679 18.61977173 -19.11092337 14.60961638 -16 10 C-13.9375 9 -13.9375 9 -12 9 C-11.34 9.66 -10.68 10.32 -10 11 C-7.42938689 11.64767793 -7.42938689 11.64767793 -5 12 C-4.8453125 10.948125 -4.8453125 10.948125 -4.6875 9.875 C-3.84996394 6.37257648 -2.60307892 2.60307892 0 0 Z " fill="#424D53" transform="translate(290,426)"/>
<path d="M0 0 C0.94672577 -0.00191345 1.89345154 -0.0038269 2.86886597 -0.00579834 C4.8604967 -0.00715033 6.85213655 -0.00352335 8.84375 0.00488281 C11.8387513 0.01552397 14.83314291 0.00499078 17.828125 -0.0078125 C47.98686814 -0.03186752 47.98686814 -0.03186752 59.7421875 6.265625 C59.7421875 7.585625 59.7421875 8.905625 59.7421875 10.265625 C57.4321875 10.265625 55.1221875 10.265625 52.7421875 10.265625 C52.7421875 10.925625 52.7421875 11.585625 52.7421875 12.265625 C51.72640625 12.49636719 50.710625 12.72710937 49.6640625 12.96484375 C42.01794085 14.7564661 34.94496724 16.85717396 27.73828125 20.03515625 C19.60795466 23.37420824 11.06760991 25.33933331 2.41796875 26.76171875 C-1.44162884 27.48856267 -5.17932084 28.57397483 -8.9453125 29.6796875 C-11.2578125 30.265625 -11.2578125 30.265625 -14.2578125 30.265625 C-14.2578125 30.925625 -14.2578125 31.585625 -14.2578125 32.265625 C-18.7128125 32.760625 -18.7128125 32.760625 -23.2578125 33.265625 C-23.39058594 32.31300781 -23.52335937 31.36039062 -23.66015625 30.37890625 C-23.83675781 29.12464844 -24.01335937 27.87039063 -24.1953125 26.578125 C-24.36933594 25.33675781 -24.54335938 24.09539062 -24.72265625 22.81640625 C-25.15604147 19.94087952 -25.65430532 17.10917687 -26.2578125 14.265625 C-27.5778125 13.935625 -28.8978125 13.605625 -30.2578125 13.265625 C-30.5878125 14.915625 -30.9178125 16.565625 -31.2578125 18.265625 C-32.2478125 18.265625 -33.2378125 18.265625 -34.2578125 18.265625 C-34.0195349 14.21490583 -33.6951818 11.83553045 -31.1953125 8.578125 C-21.88887384 1.25177967 -11.57378179 -0.05309377 0 0 Z " fill="#E3BC1F" transform="translate(311.2578125,352.734375)"/>
<path d="M0 0 C6.71135664 0.16405538 10.26796574 1.14966489 15 6 C16.35439668 8.70879335 16.06501451 11.00933268 16 14 C16.66 14 17.32 14 18 14 C18.3449145 15.33038449 18.67516582 16.66457061 19 18 C19.185625 18.7425 19.37125 19.485 19.5625 20.25 C20.13932066 23.87572984 20.06221398 27.32937527 20 31 C52.04852234 32.30704764 52.04852234 32.30704764 80 20 C80.23653523 17.47403741 80.42173692 14.96892793 80.5625 12.4375 C80.62727539 11.37112305 80.62727539 11.37112305 80.69335938 10.28320312 C80.79971777 8.52238088 80.90038846 6.7612168 81 5 C81.33 5 81.66 5 82 5 C83.97314653 28.04028021 83.97314653 28.04028021 80 34 C76.8125 35.0625 76.8125 35.0625 73 36 C71.38351562 36.94939453 71.38351562 36.94939453 69.734375 37.91796875 C59.33646896 44.00344249 46.24021824 44.47988315 34.49588013 44.7598877 C32.54120017 44.81141394 30.587702 44.90284289 28.63452148 44.99511719 C21.58086128 45.04130709 17.6967442 44.43787248 12.46875 39.51171875 C11.74107422 38.69533936 11.01339844 37.87895996 10.26367188 37.0378418 C7.52443079 34.57187488 5.61904294 34.29000407 2 34 C2.33 33.01 2.66 32.02 3 31 C6.3 31 9.6 31 13 31 C13.13523325 27.76942783 13.23421546 24.5445331 13.3125 21.3125 C13.35439453 20.40048828 13.39628906 19.48847656 13.43945312 18.54882812 C13.55717708 12.77337809 13.55717708 12.77337809 10.54296875 7.91796875 C9.70378906 7.28503906 8.86460937 6.65210938 8 6 C7.67 5.67 7.34 5.34 7 5 C4.67182036 4.63239269 2.3381615 4.29758419 0 4 C0 2.68 0 1.36 0 0 Z " fill="#3D444D" transform="translate(290,435)"/>
<path d="M0 0 C1.5625 2.8125 1.5625 2.8125 3 6 C1.5361389 10.39158329 -0.97831338 10.87947433 -5 13 C-4.71125 13.50144531 -4.4225 14.00289063 -4.125 14.51953125 C-1.14391063 20.59557105 -0.53368716 26.20960972 -0.4375 32.875 C-0.39786133 34.12373901 -0.39786133 34.12373901 -0.35742188 35.39770508 C-0.39124815 41.35294234 -0.39124815 41.35294234 -3.296875 44.44140625 C-4.63492188 45.21291016 -4.63492188 45.21291016 -6 46 C-6.62519531 46.38285156 -7.25039063 46.76570313 -7.89453125 47.16015625 C-24.74366664 55.08714255 -43.89158535 53.30711507 -62 53 C-62.66 47.39 -63.32 41.78 -64 36 C-64.66 36 -65.32 36 -66 36 C-66.226875 34.7625 -66.45375 33.525 -66.6875 32.25 C-67.46023076 29.25434515 -67.97842258 28.02484673 -70.0625 25.625 C-73.90990531 23.49664812 -77.68969732 22.71368846 -82 22 C-81.38640625 21.73445313 -80.7728125 21.46890625 -80.140625 21.1953125 C-77.06615351 19.47854558 -75.80157459 16.95972969 -74 14 C-68.49448143 14.67611632 -65.76813916 15.68199701 -62.25 20.0625 C-56.21030059 28.64740303 -53 37.46633517 -53 48 C-48.05 48 -43.1 48 -38 48 C-38.144375 46.83082031 -38.28875 45.66164063 -38.4375 44.45703125 C-38.62515554 42.90887301 -38.8126469 41.36069487 -39 39.8125 C-39.09539062 39.04357422 -39.19078125 38.27464844 -39.2890625 37.48242188 C-39.75192894 33.63071189 -40.12467468 29.88829149 -40 26 C-36.75870049 30.86194927 -36.86705161 35.01658508 -36.9375 40.75 C-36.94201172 41.44738281 -36.94652344 42.14476562 -36.95117188 42.86328125 C-36.9628998 44.57555803 -36.98083347 46.28779033 -37 48 C-34.58179317 47.54884201 -32.16567137 47.08938045 -29.75 46.625 C-29.06808594 46.49867188 -28.38617188 46.37234375 -27.68359375 46.2421875 C-24.13454636 45.55305208 -21.18598434 44.67683386 -18 43 C-15.33646245 42.48479018 -12.70500869 42.27050087 -10 42 C-9.67 41.01 -9.34 40.02 -9 39 C-7.04402816 37.60287726 -5.04563599 36.26220093 -3 35 C-3.33430401 27.43781278 -3.87107467 20.93805182 -7 14 C-8.66842534 14.32441604 -10.33480481 14.65939189 -12 15 C-12.721875 15.103125 -13.44375 15.20625 -14.1875 15.3125 C-16.20837047 15.86625333 -16.20837047 15.86625333 -17.25 18.0625 C-17.62125 19.0215625 -17.62125 19.0215625 -18 20 C-18 19.34 -18 18.68 -18 18 C-19.3921875 18.3403125 -19.3921875 18.3403125 -20.8125 18.6875 C-24 19 -24 19 -25.9375 17.9375 C-27.49954362 15.08906752 -26.74921024 13.06495097 -26 10 C-25.41992188 9.82984375 -24.83984375 9.6596875 -24.2421875 9.484375 C-19.19138754 7.91746016 -15.39436985 5.99191139 -11 3 C-7.29495988 1.32492439 -4.09255403 0 0 0 Z " fill="#474748" transform="translate(372,413)"/>
<path d="M0 0 C0.33 2.31 0.66 4.62 1 7 C1.66 7 2.32 7 3 7 C3.67057887 8.7902061 4.3363469 10.58221489 5 12.375 C5.556875 13.87160156 5.556875 13.87160156 6.125 15.3984375 C7 18 7 18 7 20 C7.763125 20.2475 8.52625 20.495 9.3125 20.75 C12.27791695 22.1292637 13.38360273 23.19257315 15 26 C15 26.99 15 27.98 15 29 C15.928125 29 16.85625 29 17.8125 29 C21 30 21 30 22.03125 31.6015625 C22.84696465 33.71426346 23.44904129 35.804036 24 38 C24.350625 39.155 24.70125 40.31 25.0625 41.5 C24.98368998 45.91336118 23.79897003 47.92498364 21 51.26171875 C16.27033023 55.37246689 10.37327428 56.32010371 4.25 56 C-0.32123717 55.22329421 -2.94660203 53.57470982 -6 50 C-8.23084275 44.67076453 -8.13473988 39.64036295 -7.2890625 34.015625 C-6.92902076 31.84443817 -6.92902076 31.84443817 -7 29 C-7 27 -7 27 -6 26 C-5.93709663 20.25063173 -7.32789259 15.77918009 -10.078125 10.796875 C-11.21293179 8.58496345 -11.69266907 6.45864742 -12 4 C-10.6078125 3.566875 -10.6078125 3.566875 -9.1875 3.125 C-0.33333333 0 -0.33333333 0 0 0 Z M13 38 C7.43282467 40.35456323 7.43282467 40.35456323 2 43 C5.43361902 46.63559661 8.7973607 49.36113346 13 52 C15.08940868 48.86588698 15.27364412 48.02549528 15.25 44.4375 C15.25515625 43.65246094 15.2603125 42.86742187 15.265625 42.05859375 C15.18429262 39.77709032 15.18429262 39.77709032 13 38 Z " fill="#57626A" transform="translate(393,419)"/>
<path d="M0 0 C0.94672577 -0.00191345 1.89345154 -0.0038269 2.86886597 -0.00579834 C4.8604967 -0.00715033 6.85213655 -0.00352335 8.84375 0.00488281 C11.8387513 0.01552397 14.83314291 0.00499078 17.828125 -0.0078125 C47.98686814 -0.03186752 47.98686814 -0.03186752 59.7421875 6.265625 C59.7421875 7.585625 59.7421875 8.905625 59.7421875 10.265625 C57.4321875 10.265625 55.1221875 10.265625 52.7421875 10.265625 C52.7421875 10.925625 52.7421875 11.585625 52.7421875 12.265625 C51.72640625 12.49636719 50.710625 12.72710937 49.6640625 12.96484375 C42.02966001 14.7537201 34.96357803 16.84582013 27.76953125 20.0234375 C13.08805216 26.04757989 13.08805216 26.04757989 7.7421875 24.265625 C10.0521875 23.605625 12.3621875 22.945625 14.7421875 22.265625 C13.7521875 14.840625 13.7521875 14.840625 12.7421875 7.265625 C39.65708112 4.88264628 39.65708112 4.88264628 52.7421875 5.265625 C50.78442636 4.94956011 48.82593844 4.63799668 46.8671875 4.328125 C45.77664063 4.15410156 44.68609375 3.98007812 43.5625 3.80078125 C33.48550793 2.38917807 23.57647319 2.048934 13.41162109 2.02539062 C10.87955007 2.01567245 8.3482883 1.98455865 5.81640625 1.953125 C-3.29699919 1.89549187 -11.50689392 2.36397008 -20.2578125 5.265625 C-19.69694946 6.12849121 -19.69694946 6.12849121 -19.12475586 7.00878906 C-18.69428955 7.67104492 -18.26382324 8.33330078 -17.8203125 9.015625 C-17.36785156 9.71171875 -16.91539062 10.4078125 -16.44921875 11.125 C-13.94422991 15.62576683 -14.13323462 19.96344051 -14.1953125 25.015625 C-14.19982422 25.71300781 -14.20433594 26.41039062 -14.20898438 27.12890625 C-14.2207123 28.84118303 -14.23864597 30.55341533 -14.2578125 32.265625 C-18.7128125 32.760625 -18.7128125 32.760625 -23.2578125 33.265625 C-23.39058594 32.31300781 -23.52335937 31.36039062 -23.66015625 30.37890625 C-23.83675781 29.12464844 -24.01335937 27.87039063 -24.1953125 26.578125 C-24.36933594 25.33675781 -24.54335938 24.09539062 -24.72265625 22.81640625 C-25.15604147 19.94087952 -25.65430532 17.10917687 -26.2578125 14.265625 C-27.5778125 13.935625 -28.8978125 13.605625 -30.2578125 13.265625 C-30.5878125 14.915625 -30.9178125 16.565625 -31.2578125 18.265625 C-32.2478125 18.265625 -33.2378125 18.265625 -34.2578125 18.265625 C-34.0195349 14.21490583 -33.6951818 11.83553045 -31.1953125 8.578125 C-21.88887384 1.25177967 -11.57378179 -0.05309377 0 0 Z " fill="#744B1D" transform="translate(311.2578125,352.734375)"/>
<path d="M0 0 C3.32748909 6.17962259 4.88657048 14.01825748 4 21 C1.64453125 23.2578125 1.64453125 23.2578125 -1 25 C-2.1446875 26.051875 -2.1446875 26.051875 -3.3125 27.125 C-6.05379279 29.03752985 -8.36522719 29.80984357 -11.6171875 30.49609375 C-15.50421583 31.31810466 -19.32789205 32.39742358 -23.16796875 33.4140625 C-25.87290606 33.9737047 -28.2483545 34.11066947 -31 34 C-31.06058594 32.99839844 -31.12117188 31.99679687 -31.18359375 30.96484375 C-31.26808405 29.62238669 -31.35272768 28.27993928 -31.4375 26.9375 C-31.51871094 25.62652344 -31.59992188 24.31554687 -31.68359375 22.96484375 C-31.97898249 19.26336762 -32.43265388 15.66629552 -33 12 C-33.66 12 -34.32 12 -35 12 C-35.33 10.68 -35.66 9.36 -36 8 C-35.14535156 7.95101563 -34.29070312 7.90203125 -33.41015625 7.8515625 C-32.30542969 7.77679688 -31.20070313 7.70203125 -30.0625 7.625 C-28.40927734 7.52058594 -28.40927734 7.52058594 -26.72265625 7.4140625 C-25.37494141 7.20910156 -25.37494141 7.20910156 -24 7 C-23.67 6.34 -23.34 5.68 -23 5 C-22.01 7.31 -21.02 9.62 -20 12 C-18.35 12 -16.7 12 -15 12 C-13.51892549 9.10517255 -12.11251004 6.35360297 -11.125 3.25 C-10 1 -10 1 -7.6875 -0.375 C-4.48411838 -1.11997247 -3.00296947 -1.42245922 0 0 Z " fill="#E2AA1C" transform="translate(366,427)"/>
<path d="M0 0 C-6.22421286 5.12436344 -12.64851365 9.33440616 -19.6875 13.25 C-21.05358398 14.0234375 -21.05358398 14.0234375 -22.44726562 14.8125 C-35.20137323 22 -35.20137323 22 -38 22 C-38 22.66 -38 23.32 -38 24 C-40.92956779 25.95304519 -42.27118291 26.37853048 -45.625 26.9375 C-49.01527168 27.55391303 -52.09476053 28.33726094 -55.3125 29.5625 C-61.03977979 31.60207086 -66.97257879 31.72983738 -73 32 C-72.01 30.35 -71.02 28.7 -70 27 C-71.09812545 28.04688979 -71.09812545 28.04688979 -72.1875 29.625 C-74 31 -74 31 -76.9375 30.9375 C-80.33295706 29.89807437 -81.74517555 28.68844453 -84 26 C-83.67 25.34 -83.34 24.68 -83 24 C-81.66666667 23.66666667 -80.33333333 23.33333333 -79 23 C-78.154375 22.484375 -77.30875 21.96875 -76.4375 21.4375 C-74 20 -74 20 -71 20 C-71 19.34 -71 18.68 -71 18 C-69.5459375 17.65388672 -69.5459375 17.65388672 -68.0625 17.30078125 C-57.2104044 14.67547243 -46.59163123 11.53054374 -36 8 C-34.35699072 7.87623216 -32.71200322 7.77782659 -31.06640625 7.6953125 C-24.59118234 7.15135529 -18.98028106 5.1669545 -12.9375 2.875 C-10.90741009 2.11577938 -8.87496398 1.36281921 -6.83984375 0.6171875 C-5.51521118 0.11614502 -5.51521118 0.11614502 -4.16381836 -0.39501953 C-2 -1 -2 -1 0 0 Z " fill="#A06714" transform="translate(364,372)"/>
<path d="M0 0 C-2.24411303 8.11424027 -8.0298036 14.31869516 -15 18.9375 C-22.59990255 23.06029044 -29.70093936 24.53775375 -38.3125 24.4375 C-39.23458252 24.42920166 -40.15666504 24.42090332 -41.10668945 24.41235352 C-52.82497972 24.12277128 -62.06469868 20.73149412 -71 13 C-72.04199604 11.69922253 -73.05680867 10.37410622 -74 9 C-71.47450096 8.12578879 -69.96157367 8.00646735 -67.29321289 8.45556641 C-42.4936446 12.55542831 -21.86046671 0 0 0 Z " fill="#6D4015" transform="translate(369,469)"/>
<path d="M0 0 C0.05407567 2.58361518 0.093707 5.16609255 0.125 7.75 C0.14175781 8.47960937 0.15851563 9.20921875 0.17578125 9.9609375 C0.21072239 13.8044624 0.17499684 16.74606772 -2 20 C-3.32 20 -4.64 20 -6 20 C-4.33045181 23.22404978 -4.33045181 23.22404978 -1.375 23.6875 C-0.59125 23.790625 0.1925 23.89375 1 24 C0.67 24.66 0.34 25.32 0 26 C-0.99 26.33 -1.98 26.66 -3 27 C0.29775216 30.18306284 0.29775216 30.18306284 4.625 31.125 C7.98352684 29.53411886 8.64294134 27.35693458 10 24 C10.6875 25.75 10.6875 25.75 11 28 C9.51953125 30.140625 9.51953125 30.140625 8 32 C15.72598562 31.72602888 22.27719416 30.52538339 29.50390625 27.7421875 C32 27 32 27 35 28 C34.34 28 33.68 28 33 28 C33.495 29.485 33.495 29.485 34 31 C34.12781786 33.67394964 34.04391871 36.32095857 34 39 C32.48105765 39.62958174 30.95972805 40.25340464 29.4375 40.875 C28.52097656 41.25011719 27.60445313 41.62523437 26.66015625 42.01171875 C24 43 24 43 20.375 43.6875 C15.20487816 45.69810294 12.38553141 49.72631619 9 54 C9 52.33333333 9 50.66666667 9 49 C4.545 47.02 4.545 47.02 0 45 C-0.66 46.32 -1.32 47.64 -2 49 C-4.33055076 51.33055076 -5.65397306 51.94846407 -8.9375 52.4375 C-12.95331304 51.86381242 -14.43003021 51.17466856 -17 48 C-17.70457022 43.93875088 -18.1919047 39.73644901 -15.77734375 36.21875 C-12.28094462 33.82121917 -8.04552212 34.39648768 -4 35 C-1.4375 36.75 -1.4375 36.75 0 39 C0.12375 39.70125 0.2475 40.4025 0.375 41.125 C0.58125 41.74375 0.7875 42.3625 1 43 C3.77825456 44.28776153 3.77825456 44.28776153 7 45 C7.78375 45.33 8.5675 45.66 9.375 46 C13.18726219 46 14.92389503 43.98498393 17.80859375 41.63671875 C21.97244221 38.52682123 26.75343072 36 32 36 C32 34.02 32 32.04 32 30 C31.175 30.28875 30.35 30.5775 29.5 30.875 C20.35560771 33.81426895 11.60720959 35.4201962 2 34 C-2.82711474 31.35577631 -4.98579436 29.14741442 -7 24 C-7 23.34 -7 22.68 -7 22 C-8.32 21.67 -9.64 21.34 -11 21 C-11.08132187 18.43685501 -11.14064175 15.87631582 -11.1875 13.3125 C-11.21263672 12.59126953 -11.23777344 11.87003906 -11.26367188 11.12695312 C-11.32636193 6.55057914 -10.90653364 3.59692167 -8 0 C-4.68027502 -1.16190374 -3.37151546 -1.12383849 0 0 Z " fill="#623514" transform="translate(284,371)"/>
<path d="M0 0 C2.31 0 4.62 0 7 0 C5.71792641 2.86001033 4.50848764 5.07039412 2 7 C0.68 7 -0.64 7 -2 7 C-2 7.66 -2 8.32 -2 9 C-5.59648282 10.3342303 -9.20327379 11.63817856 -12.8125 12.9375 C-13.81732422 13.31068359 -14.82214844 13.68386719 -15.85742188 14.06835938 C-21.86580007 16.21282876 -27.28380091 17.41572385 -33.64868164 17.80834961 C-36.44171813 18.0360034 -38.73515666 18.72525096 -41.3125 19.8125 C-50.94840457 23.58426836 -60.61743716 26.52154088 -71 27 C-71 27.66 -71 28.32 -71 29 C-75.62197306 31.21854707 -78.76824163 32.38281159 -84 32 C-84.66 30.68 -85.32 29.36 -86 28 C-84.68 28 -83.36 28 -82 28 C-80.85017398 23.90996141 -80.88905744 19.96822949 -80.9375 15.75 C-80.94201172 15.00492187 -80.94652344 14.25984375 -80.95117188 13.4921875 C-80.96290754 11.6614236 -80.9808415 9.83070127 -81 8 C-81.99 8 -82.98 8 -84 8 C-83.67 6.35 -83.34 4.7 -83 3 C-81.35 3.33 -79.7 3.66 -78 4 C-76.24789591 10.47652761 -75.81106115 16.29267094 -76 23 C-73.03 22.67 -70.06 22.34 -67 22 C-67 21.34 -67 20.68 -67 20 C-50.61296107 14.96670082 -50.61296107 14.96670082 -44.5 14 C-34.34540459 12.35414815 -24.13393694 9.26713858 -14.84765625 4.84765625 C-9.9189334 2.58648742 -5.3880599 1.73716781 0 2 C0 1.34 0 0.68 0 0 Z " fill="#1C1108" transform="translate(364,363)"/>
<path d="M0 0 C6.71135664 0.16405538 10.26796574 1.14966489 15 6 C16.35439668 8.70879335 16.06501451 11.00933268 16 14 C16.66 14 17.32 14 18 14 C18.3449145 15.33038449 18.67516582 16.66457061 19 18 C19.185625 18.7425 19.37125 19.485 19.5625 20.25 C20.13932066 23.87572984 20.06221398 27.32937527 20 31 C41.09649561 30.99180039 41.09649561 30.99180039 61.9375 28.1875 C62.65526611 28.03442383 63.37303223 27.88134766 64.11254883 27.72363281 C68.54339077 26.65238198 72.28440433 24.96284605 76.24047852 22.70043945 C78 22 78 22 81 23 C72.2459679 31.08064502 62.47041212 33.01886171 51 35 C50.06953857 35.17418457 49.13907715 35.34836914 48.18041992 35.52783203 C42.48168977 36.37387058 36.75084388 36.18458079 31 36.1875 C29.14181641 36.20586914 29.14181641 36.20586914 27.24609375 36.22460938 C18.62743853 36.23809007 10.49152739 35.44333069 2 34 C2.33 33.01 2.66 32.02 3 31 C6.3 31 9.6 31 13 31 C13.13523325 27.76942783 13.23421546 24.5445331 13.3125 21.3125 C13.35439453 20.40048828 13.39628906 19.48847656 13.43945312 18.54882812 C13.55717708 12.77337809 13.55717708 12.77337809 10.54296875 7.91796875 C9.70378906 7.28503906 8.86460937 6.65210938 8 6 C7.67 5.67 7.34 5.34 7 5 C4.67182036 4.63239269 2.3381615 4.29758419 0 4 C0 2.68 0 1.36 0 0 Z " fill="#0A0A0B" transform="translate(290,435)"/>
<path d="M0 0 C0.99 0 1.98 0 3 0 C3.33 2.31 3.66 4.62 4 7 C4.66 7 5.32 7 6 7 C6.67057887 8.7902061 7.3363469 10.58221489 8 12.375 C8.556875 13.87160156 8.556875 13.87160156 9.125 15.3984375 C10 18 10 18 10 20 C10.763125 20.2475 11.52625 20.495 12.3125 20.75 C15.27791695 22.1292637 16.38360273 23.19257315 18 26 C18 26.99 18 27.98 18 29 C18.928125 29 19.85625 29 20.8125 29 C24 30 24 30 25.03125 31.6015625 C25.84696465 33.71426346 26.44904129 35.804036 27 38 C27.350625 39.155 27.70125 40.31 28.0625 41.5 C27.98368998 45.91336118 26.79897003 47.92498364 24 51.26171875 C19.27033023 55.37246689 13.37327428 56.32010371 7.25 56 C2.64513213 55.28841296 0.24802049 53.24802049 -3 50 C-2.67 49.01 -2.34 48.02 -2 47 C-1.443125 47.61875 -0.88625 48.2375 -0.3125 48.875 C3.10551386 52.0158776 5.68179703 52.95025649 10.3125 53.125 C11.199375 53.08375 12.08625 53.0425 13 53 C12.45730469 52.75765625 11.91460937 52.5153125 11.35546875 52.265625 C3.81272909 48.7320893 3.81272909 48.7320893 2 45 C1.3125 41.25 1.3125 41.25 1 38 C1.59167969 38.13019531 2.18335938 38.26039063 2.79296875 38.39453125 C7.12057118 39.14992026 9.2098193 39.4837841 13.0625 37.125 C15.75151871 32.78787305 15.37632402 30.04274187 15 25 C11.7 24.01 8.4 23.02 5 22 C5.66 21.67 6.32 21.34 7 21 C5.67575272 15.92371878 3.92278816 11.17347352 1.90234375 6.33203125 C1.08895629 4.22990002 0.48987224 2.19684973 0 0 Z M16 38 C10.43282467 40.35456323 10.43282467 40.35456323 5 43 C8.43361902 46.63559661 11.7973607 49.36113346 16 52 C18.08940868 48.86588698 18.27364412 48.02549528 18.25 44.4375 C18.25515625 43.65246094 18.2603125 42.86742187 18.265625 42.05859375 C18.18429262 39.77709032 18.18429262 39.77709032 16 38 Z " fill="#6E461A" transform="translate(390,419)"/>
<path d="M0 0 C-40.91793506 21.24028595 -40.91793506 21.24028595 -62 22 C-62 20.02 -62 18.04 -62 16 C-54.72401545 12.8692278 -47.29993156 10.4556706 -39.734375 8.1484375 C-37.41626678 7.43554648 -35.10938441 6.68340971 -32.82421875 5.87109375 C-30.09363939 5.02888186 -27.90253684 4.77274597 -25.0625 4.6875 C-19.36196589 4.2881494 -14.42875931 2.65449278 -9.12719727 0.6394043 C-5.73530622 -0.60990852 -3.43306754 -1.42829376 0 0 Z " fill="#E2921A" transform="translate(358,375)"/>
<path d="M0 0 C0.66 0 1.32 0 2 0 C2.66 0.66 3.32 1.32 4 2 C7.801805 2.01859983 11.55467106 1.89489019 15.34765625 1.65820312 C21.42268741 1.46495173 21.42268741 1.46495173 24.5078125 4.32421875 C27.19176136 9.13705898 27 11.00413658 27 17 C20.07 17 13.14 17 6 17 C5.566875 19.59875 5.566875 19.59875 5.125 22.25 C4.52213974 25.86716157 3.8133922 28.79989612 2 32 C1.01 32 0.02 32 -1 32 C-1 31.34 -1 30.68 -1 30 C-0.34 30 0.32 30 1 30 C1.02902996 25.75001434 1.04680887 21.50005419 1.0625 17.25 C1.07087891 16.0434375 1.07925781 14.836875 1.08789062 13.59375 C1.09111328 12.43359375 1.09433594 11.2734375 1.09765625 10.078125 C1.10551147 8.47565918 1.10551147 8.47565918 1.11352539 6.84082031 C1.01503008 4.37610765 0.71565464 2.34754533 0 0 Z " fill="#909CA6" transform="translate(276,438)"/>
<path d="M0 0 C0.515625 0.2475 1.03125 0.495 1.5625 0.75 C-3.24314985 8.27830471 -7.99897174 11.88907446 -16.4375 14.75 C-17.15679687 14.99492187 -17.87609375 15.23984375 -18.6171875 15.4921875 C-30.21896358 18.68814846 -41.96124285 17.63954831 -52.4375 11.75 C-53.0975 11.09 -53.7575 10.43 -54.4375 9.75 C-53.28378906 9.73582031 -52.13007813 9.72164063 -50.94140625 9.70703125 C-40.81575871 9.45739238 -31.06953001 8.38998507 -21.125 6.4375 C-20.07062744 6.23680908 -19.01625488 6.03611816 -17.92993164 5.8293457 C-13.37880963 4.88699144 -9.43549426 3.97635104 -5.45703125 1.51953125 C-2.4375 -0.25 -2.4375 -0.25 0 0 Z " fill="#DFA61C" transform="translate(365.4375,470.25)"/>
<path d="M0 0 C3.95820859 0.56545837 6.6659053 1.80902348 10 4 C9.67 5.65 9.34 7.3 9 9 C11.475 9.495 11.475 9.495 14 10 C12.87548273 12.9719385 11.77706209 15.33440687 10 18 C8.67405895 18.36162029 7.34061543 18.69728039 6 19 C5.67 19.66 5.34 20.32 5 21 C4.34 21 3.68 21 3 21 C3.99 17.7 4.98 14.4 6 11 C3.525 10.505 3.525 10.505 1 10 C0.21625 9.835 -0.5675 9.67 -1.375 9.5 C-4.57009904 8.89140971 -7.77810626 8.44222071 -11 8 C-11.99 10.97 -12.98 13.94 -14 17 C-14.66 17 -15.32 17 -16 17 C-16.33 18.32 -16.66 19.64 -17 21 C-22.75 19.125 -22.75 19.125 -25 18 C-24.67 16.68 -24.34 15.36 -24 14 C-23.34 14 -22.68 14 -22 14 C-21.9175 13.29875 -21.835 12.5975 -21.75 11.875 C-20.82972275 8.34727053 -19.11873023 5.93888386 -17 3 C-16.29875 3.495 -15.5975 3.99 -14.875 4.5 C-11.50604479 6.25771576 -9.74917903 6.54675527 -6 6 C-3.30009338 4.20006226 -1.4581135 2.916227 0 0 Z " fill="#464D51" transform="translate(284,416)"/>
<path d="M0 0 C11.55 0 23.1 0 35 0 C35 1.32 35 2.64 35 4 C8.78640777 13 8.78640777 13 2 13 C1.34 8.71 0.68 4.42 0 0 Z " fill="#E6C340" transform="translate(326,361)"/>
<path d="M0 0 C2.96045738 2.59040021 3.85478339 4.12870035 4.5 8 C3.88059469 11.71643187 2.60468873 13.32089159 0 16 C-3 18 -3 18 -6.4375 17.875 C-10.40208143 16.90124316 -11.74925379 16.37611932 -14 13 C-14.87651722 10.27938161 -15.24912336 7.85359481 -15 5 C-11.32719693 -1.16506229 -6.71143186 -1.95806362 0 0 Z " fill="#CC6E19" transform="translate(388,404)"/>
<path d="M0 0 C1.5625 2.8125 1.5625 2.8125 3 6 C2 9 2 9 0.25 10.0625 C-0.4925 10.371875 -1.235 10.68125 -2 11 C-3.20849609 11.51046875 -3.20849609 11.51046875 -4.44140625 12.03125 C-7.62913593 13.23820719 -10.86078113 14.21135579 -14.15234375 15.09375 C-16.55185133 16.27067549 -17.0457509 17.56191852 -18 20 C-18 19.34 -18 18.68 -18 18 C-19.3921875 18.3403125 -19.3921875 18.3403125 -20.8125 18.6875 C-24 19 -24 19 -25.9375 17.9375 C-27.49954362 15.08906752 -26.74921024 13.06495097 -26 10 C-25.41992188 9.82984375 -24.83984375 9.6596875 -24.2421875 9.484375 C-19.19138754 7.91746016 -15.39436985 5.99191139 -11 3 C-7.29495988 1.32492439 -4.09255403 0 0 0 Z " fill="#52595C" transform="translate(372,413)"/>
<path d="M0 0 C3.16115776 1.36983503 3.9927092 1.9890638 6 5 C6.19521269 7.71001148 6.2788975 10.29326791 6.25 13 C6.25773437 13.72445313 6.26546875 14.44890625 6.2734375 15.1953125 C6.25942063 18.99388493 6.15441944 20.76837084 4 24 C1.75 24.51171875 1.75 24.51171875 -1 24.6875 C-1.97582031 24.75195312 -2.95164062 24.81640625 -3.95703125 24.8828125 C-8.31188179 25.05052176 -12.64223524 25.06315601 -17 25 C-16.67 21.37 -16.34 17.74 -16 14 C-9.07 14 -2.14 14 5 14 C3.85637379 4.54258797 3.85637379 4.54258797 0 0 Z " fill="#5A666D" transform="translate(298,441)"/>
<path d="M0 0 C3.32961021 0.55493503 5.30091917 1.49496853 8 3.5 C9.55024464 6.60048928 9.28992015 9.07894218 9 12.5 C7.4375 15.375 7.4375 15.375 5 17.5 C1.02289141 18.65697704 -1.05507108 18.91083866 -4.875 17.25 C-7.84727571 14.80224353 -7.95616349 12.89452863 -8.375 9.125 C-8 5.5 -8 5.5 -5.875 2.5625 C-3 0.5 -3 0.5 0 0 Z " fill="#D86917" transform="translate(397,440.5)"/>
<path d="M0 0 C8.80349379 0.1690025 15.19351845 2.03650337 23 6 C32.25094779 9.08364926 44.01545703 7.20037642 53 4 C53.99 3.34 54.98 2.68 56 2 C56.99 2.33 57.98 2.66 59 3 C58.34 3 57.68 3 57 3 C56.75378906 3.62648438 56.50757813 4.25296875 56.25390625 4.8984375 C54.02803026 8.62903339 50.00570272 8.93726254 46 10 C45.27167969 10.20753906 44.54335938 10.41507812 43.79296875 10.62890625 C34.57469489 13.0040651 26.18200904 12.26779892 17 10.1875 C16.2575 10.02233887 15.515 9.85717773 14.75 9.68701172 C11.00022102 8.77110752 8.4423901 8.04702088 6 5 C4.948125 4.29875 3.89625 3.5975 2.8125 2.875 C1.884375 2.25625 0.95625 1.6375 0 1 C0 0.67 0 0.34 0 0 Z " fill="#875D18" transform="translate(299,479)"/>
<path d="M0 0 C0.05407567 2.58361518 0.093707 5.16609255 0.125 7.75 C0.14175781 8.47960937 0.15851563 9.20921875 0.17578125 9.9609375 C0.23909166 16.92508302 0.23909166 16.92508302 -2 20 C-4.65734652 21.46853361 -6.15874295 22.1776662 -9.1640625 21.54296875 C-9.76992188 21.36378906 -10.37578125 21.18460937 -11 21 C-11.08132187 18.43685501 -11.14064175 15.87631582 -11.1875 13.3125 C-11.21263672 12.59126953 -11.23777344 11.87003906 -11.26367188 11.12695312 C-11.32636193 6.55057914 -10.90653364 3.59692167 -8 0 C-4.68027502 -1.16190374 -3.37151546 -1.12383849 0 0 Z " fill="#404A51" transform="translate(284,371)"/>
<path d="M0 0 C0.90443848 -0.00136963 1.80887695 -0.00273926 2.74072266 -0.00415039 C7.22029117 0.07010355 10.87528394 0.26366109 14.9375 2.375 C14.9375 3.035 14.9375 3.695 14.9375 4.375 C15.72125 4.643125 16.505 4.91125 17.3125 5.1875 C19.9375 6.375 19.9375 6.375 21.9375 9.375 C20.2875 9.705 18.6375 10.035 16.9375 10.375 C16.2775 9.385 15.6175 8.395 14.9375 7.375 C7.09659535 3.5567093 -0.48125165 2.80212111 -9.0625 3.375 C-9.85527344 3.395625 -10.64804687 3.41625 -11.46484375 3.4375 C-21.24313837 3.98742167 -27.78653177 8.78436775 -34.234375 15.76953125 C-36.0625 17.375 -36.0625 17.375 -39.5625 17.875 C-40.3875 17.71 -41.2125 17.545 -42.0625 17.375 C-40.74652117 11.94658733 -36.69608466 8.22408016 -32.0625 5.375 C-29.73864299 4.98098964 -27.40332656 4.65083794 -25.0625 4.375 C-23.01270021 3.71214267 -20.97110339 3.02349667 -18.9375 2.3125 C-12.55488493 0.42313601 -6.64507824 -0.00401758 0 0 Z " fill="#EAD686" transform="translate(335.0625,408.625)"/>
<path d="M0 0 C2.31 0.33 4.62 0.66 7 1 C11.08698885 11.12862454 11.08698885 11.12862454 11 16 C9.049931 19.72650172 6.9191806 23.36819895 2.79296875 24.7265625 C2.20128906 24.81679688 1.60960937 24.90703125 1 25 C0.93941406 24.38253906 0.87882812 23.76507813 0.81640625 23.12890625 C0.73261719 22.28199219 0.64882813 21.43507813 0.5625 20.5625 C0.42908203 19.19544922 0.42908203 19.19544922 0.29296875 17.80078125 C0.10938485 16.0457192 -0.0933663 14.29244096 -0.32421875 12.54296875 C-0.90615103 8.10667981 -1.0211498 4.42498245 0 0 Z " fill="#424E55" transform="translate(407,448)"/>
<path d="M0 0 C1.70312463 0.00999199 3.40624963 0.01992009 5.109375 0.02978516 C33.44424068 0.27485229 33.44424068 0.27485229 44.4375 4.3125 C44.4375 4.6425 44.4375 4.9725 44.4375 5.3125 C43.69951172 5.24248779 42.96152344 5.17247559 42.20117188 5.1003418 C31.49015606 4.20273074 20.81279173 4.12635494 10.06982422 4.12719727 C6.94354761 4.12500424 3.81762113 4.10676459 0.69140625 4.08789062 C-9.91541982 4.05915696 -20.11246321 4.2989285 -30.5625 6.3125 C-30.5625 5.3225 -30.5625 4.3325 -30.5625 3.3125 C-20.33493322 -0.03339169 -10.62286863 -0.12170523 0 0 Z " fill="#E2CC77" transform="translate(321.5625,353.6875)"/>
<path d="M0 0 C3.26202159 1.38635917 4.55122564 3.13933846 6.5 6.0625 C7.75433458 9.82550374 7.60695422 13.33460909 7.5625 17.25 C7.55798828 17.99958984 7.55347656 18.74917969 7.54882812 19.52148438 C7.53706354 21.36852383 7.51912865 23.21552213 7.5 25.0625 C5.52 25.3925 3.54 25.7225 1.5 26.0625 C1.46261719 25.34964844 1.42523438 24.63679688 1.38671875 23.90234375 C0.97904918 17.9631577 0.21337774 13.37128253 -2.5 8.0625 C-4.48 8.3925 -6.46 8.7225 -8.5 9.0625 C-7.00073882 4.56471645 -5.27248508 0.13181213 0 0 Z " fill="#E3BD1F" transform="translate(287.5,358.9375)"/>
<path d="M0 0 C1.17369141 -0.02513672 1.17369141 -0.02513672 2.37109375 -0.05078125 C5.10049646 0.40168658 5.95427999 1.08418262 7.5625 3.3125 C7.95531877 6.40594778 8.19258105 8.35825205 7.5625 11.3125 C4.99671091 14.3310754 3.3815279 15.1620663 -0.5 15.875 C-3.4375 15.3125 -3.4375 15.3125 -5.875 13.3125 C-8.08080626 9.07735197 -7.49803822 6.93341655 -6.4375 2.3125 C-4.02263057 -0.10236943 -3.31042211 0.0163075 0 0 Z " fill="#D3A11D" transform="translate(275.4375,407.6875)"/>
<path d="M0 0 C0 0.66 0 1.32 0 2 C-1.98 2.33 -3.96 2.66 -6 3 C-6 3.66 -6 4.32 -6 5 C-6.99 5 -7.98 5 -9 5 C-9 3.68 -9 2.36 -9 1 C-20.55 1 -32.1 1 -44 1 C-43.34 3.64 -42.68 6.28 -42 9 C-41.875 12 -41.875 12 -42 14 C-41.32453125 13.77183594 -40.6490625 13.54367187 -39.953125 13.30859375 C-39.06109375 13.02113281 -38.1690625 12.73367188 -37.25 12.4375 C-36.36828125 12.14746094 -35.4865625 11.85742188 -34.578125 11.55859375 C-31.86981204 10.97179261 -30.60027154 11.24360131 -28 12 C-31.26651375 13.03502777 -34.53877363 14.05053935 -37.8125 15.0625 C-38.74126953 15.35705078 -39.67003906 15.65160156 -40.62695312 15.95507812 C-41.51962891 16.22900391 -42.41230469 16.50292969 -43.33203125 16.78515625 C-44.15421143 17.04176025 -44.9763916 17.29836426 -45.82348633 17.56274414 C-48 18 -48 18 -51 17 C-48.69 16.34 -46.38 15.68 -44 15 C-44.66 10.05 -45.32 5.1 -46 0 C-42.08378144 -0.33948644 -38.1671613 -0.67172148 -34.25 -1 C-33.15816406 -1.09539062 -32.06632812 -1.19078125 -30.94140625 -1.2890625 C-20.33331972 -2.1678389 -10.35230872 -2.76061566 0 0 Z " fill="#A57B1B" transform="translate(370,360)"/>
<path d="M0 0 C0.99 0.33 1.98 0.66 3 1 C2.01 3.31 1.02 5.62 0 8 C-0.66 8 -1.32 8 -2 8 C-3.82828398 12.5169369 -3.96939474 15.26073681 -3 20 C-3.33 20.66 -3.66 21.32 -4 22 C-4.15270643 23.41394844 -4.27367453 24.83144348 -4.375 26.25 C-4.84816486 30.45440773 -5.37216851 33.55097116 -8 37 C-11.54315626 38.99834013 -15.05422623 40.2445508 -19.14453125 39.73046875 C-21.0625 39.1875 -21.0625 39.1875 -24 38 C-23.9375 36.25 -23.9375 36.25 -23 34 C-20.29950956 31.99159505 -17.44873267 30 -14 30 C-13.34 28.68 -12.68 27.36 -12 26 C-11.34 26.33 -10.68 26.66 -10 27 C-10.68732957 29.74931827 -11.35560222 31.53418821 -13.69140625 33.22265625 C-15.43116325 34.20324656 -17.2137611 35.10688055 -19 36 C-13.91696314 36.11320856 -13.91696314 36.11320856 -9 35 C-8.19436362 32.89415562 -8.19436362 32.89415562 -7.8125 30.4375 C-7.65394531 29.61121094 -7.49539063 28.78492188 -7.33203125 27.93359375 C-7.16767578 26.97646484 -7.16767578 26.97646484 -7 26 C-7.66 25.67 -8.32 25.34 -9 25 C-8.649375 24.505 -8.29875 24.01 -7.9375 23.5 C-6.53988399 19.77302397 -7.34967141 16.90197152 -8 13 C-7.34 13 -6.68 13 -6 13 C-5.67 11.68 -5.34 10.36 -5 9 C-4.34 9 -3.68 9 -3 9 C-2.87625 8.2575 -2.7525 7.515 -2.625 6.75 C-2.04513299 4.19858515 -1.26291261 2.2732427 0 0 Z " fill="#384550" transform="translate(273,424)"/>
<path d="M0 0 C0.17151487 5.05968873 0.03461345 8.33235737 -2 13 C-2.165 14.2375 -2.33 15.475 -2.5 16.75 C-2.665 17.8225 -2.83 18.895 -3 20 C-3.66 20.33 -4.32 20.66 -5 21 C-5.66 20.67 -6.32 20.34 -7 20 C-7 19.34 -7 18.68 -7 18 C-7.66 18 -8.32 18 -9 18 C-10.81626364 15.32902406 -10.99826046 13.96926821 -10.8125 10.6875 C-9.91636612 6.62043087 -9.03594105 3.63560901 -7 0 C-4.05916416 -1.14764326 -2.83550515 -1.41775258 0 0 Z " fill="#3C4A53" transform="translate(252,440)"/>
<path d="M0 0 C0.763125 0.0825 1.52625 0.165 2.3125 0.25 C2.9725 1.57 3.6325 2.89 4.3125 4.25 C3.1059375 4.559375 3.1059375 4.559375 1.875 4.875 C1.029375 5.32875 0.18375 5.7825 -0.6875 6.25 C-1.43813719 9.02158347 -1.6875 11.39214519 -1.6875 14.25 C0.9525 14.25 3.5925 14.25 6.3125 14.25 C5.5625 21 5.5625 21 3.3125 23.25 C0.6875 23.375 0.6875 23.375 -1.6875 23.25 C-5.45148205 17.01590473 -6.9471267 11.55810448 -5.6875 4.25 C-3.37367021 0.31382979 -3.37367021 0.31382979 0 0 Z " fill="#141007" transform="translate(347.6875,416.75)"/>
<path d="M0 0 C1.87184371 3.74368742 2.23999767 4.8400791 2.125 8.75 C2.10695313 9.54921875 2.08890625 10.3484375 2.0703125 11.171875 C2.04710937 11.77515625 2.02390625 12.3784375 2 13 C3.65 13 5.3 13 7 13 C7 13.33 7 13.66 7 14 C6.11699219 14.10957031 5.23398437 14.21914063 4.32421875 14.33203125 C-3.32736478 15.34292789 -10.61868591 16.74041406 -18 19 C-17.67 18.34 -17.34 17.68 -17 17 C-14.04179941 16.09408602 -11.03989563 15.59941604 -8 15 C-8.33 11.37 -8.66 7.74 -9 4 C-6.03 2.68 -3.06 1.36 0 0 Z " fill="#647077" transform="translate(326,395)"/>
<path d="M0 0 C0 0.99 0 1.98 0 3 C-26.21359223 12 -26.21359223 12 -33 12 C-33 10.35 -33 8.7 -33 7 C-28.78346609 5.99883471 -24.56593021 5.00204009 -20.34741211 4.00927734 C-18.91255842 3.67095873 -17.47798507 3.33144879 -16.04370117 2.99072266 C-13.98168375 2.50109166 -11.91869507 2.0157581 -9.85546875 1.53125 C-8.61434326 1.23798828 -7.37321777 0.94472656 -6.09448242 0.64257812 C-3 0 -3 0 0 0 Z " fill="#E4AB1D" transform="translate(361,362)"/>
<path d="M0 0 C0 2.25 0 2.25 -1 5 C-3.48872854 6.73603991 -6.20382021 7.84451247 -9 9 C-10.175625 9.515625 -11.35125 10.03125 -12.5625 10.5625 C-14.2640625 11.2740625 -14.2640625 11.2740625 -16 12 C-16.62261719 12.28101563 -17.24523437 12.56203125 -17.88671875 12.8515625 C-20.77566328 14.14765082 -22.79499123 15 -26 15 C-26 13.35 -26 11.7 -26 10 C-25.41992188 9.82984375 -24.83984375 9.6596875 -24.2421875 9.484375 C-19.19138754 7.91746016 -15.39436985 5.99191139 -11 3 C-7.29495988 1.32492439 -4.09255403 0 0 0 Z " fill="#848F99" transform="translate(372,413)"/>
<path d="M0 0 C2.875 0.3125 2.875 0.3125 6 1 C8.46324069 4.69486103 8.38991688 6.63293092 8 11 C6.8125 12.9375 6.8125 12.9375 5 14 C2.5 14.4375 2.5 14.4375 0 14 C-2.50907308 11.75048621 -2.95656309 10.34749528 -3.375 7 C-2.96644557 3.73156457 -2.20409407 2.38776858 0 0 Z " fill="#C3131E" transform="translate(308,362)"/>
<path d="M0 0 C1.32 0 2.64 0 4 0 C4 0.66 4 1.32 4 2 C5.2684375 1.7834375 5.2684375 1.7834375 6.5625 1.5625 C11.65706552 2.21089925 13.71547212 5.28601811 17 9 C17.99315873 10.00679478 18.99089587 11.00918778 20 12 C6.78245885 12.11771347 6.78245885 12.11771347 2.6328125 9.515625 C0.99894988 7.68632426 -0.15933077 6.30706386 -1 4 C-0.625 1.76953125 -0.625 1.76953125 0 0 Z " fill="#533928" transform="translate(288,467)"/>
<path d="M0 0 C0.66 0 1.32 0 2 0 C3.26723437 2.53446873 3.12941328 4.32226954 3.1328125 7.15625 C3.13474609 8.68958984 3.13474609 8.68958984 3.13671875 10.25390625 C3.13285156 11.32511719 3.12898438 12.39632813 3.125 13.5 C3.12886719 14.57121094 3.13273437 15.64242188 3.13671875 16.74609375 C3.13542969 17.76832031 3.13414062 18.79054688 3.1328125 19.84375 C3.13168457 20.78412109 3.13055664 21.72449219 3.12939453 22.69335938 C3 25 3 25 2 27 C1.01 26.67 0.02 26.34 -1 26 C-2.62894083 17.33403478 -3.10997234 8.35805065 0 0 Z " fill="#0B0B0B" transform="translate(275,440)"/>
<path d="M0 0 C2.5625 1.75 2.5625 1.75 4 4 C4.12375 4.70125 4.2475 5.4025 4.375 6.125 C4.684375 7.053125 4.684375 7.053125 5 8 C7.77825456 9.28776153 7.77825456 9.28776153 11 10 C11.845625 10.28875 12.69125 10.5775 13.5625 10.875 C17.0804167 11.05540598 18.3512939 9.18518254 21 7 C23.8125 6.75 23.8125 6.75 26 7 C26.495 7.99 26.495 7.99 27 9 C26.175 8.979375 25.35 8.95875 24.5 8.9375 C19.10245985 10.57603897 16.43317871 14.68674249 13 19 C13 17.33333333 13 15.66666667 13 14 C8.545 12.02 8.545 12.02 4 10 C3.67 10.66 3.34 11.32 3 12 C3 9.69 3 7.38 3 5 C2.01 4.67 1.02 4.34 0 4 C0 3.34 0 2.68 0 2 C-1.45947705 2.06006078 -2.91779272 2.1488689 -4.375 2.25 C-5.18710937 2.29640625 -5.99921875 2.3428125 -6.8359375 2.390625 C-9.13979765 2.7942962 -9.13979765 2.7942962 -10.28125 4.8125 C-11.29659407 7.9026776 -11.124058 10.77449194 -11 14 C-11.66 13.67 -12.32 13.34 -13 13 C-13.08121924 11.39667209 -13.13929134 9.79215974 -13.1875 8.1875 C-13.22230469 7.29417969 -13.25710938 6.40085937 -13.29296875 5.48046875 C-13 3 -13 3 -11.796875 1.203125 C-8.26915239 -1.15891536 -4.05759393 -0.60531319 0 0 Z " fill="#774818" transform="translate(280,406)"/>
<path d="M0 0 C3.1305429 -0.39964378 5.13083761 -0.52149743 7.875 1.125 C9.52854531 3.88090884 9.39365568 5.85075452 9 9 C7.875 10.875 7.875 10.875 6 12 C2.9375 12.375 2.9375 12.375 0 12 C-2.31332486 8.53001271 -2.33957563 7.07490752 -2 3 C-1.34 2.01 -0.68 1.02 0 0 Z " fill="#3E4652" transform="translate(379,406)"/>
<path d="M0 0 C0.66 0 1.32 0 2 0 C2.66 0.66 3.32 1.32 4 2 C5.93681136 2.27654388 5.93681136 2.27654388 8.1328125 2.1953125 C8.93847656 2.18886719 9.74414062 2.18242187 10.57421875 2.17578125 C11.41597656 2.15902344 12.25773437 2.14226562 13.125 2.125 C13.97449219 2.11597656 14.82398438 2.10695313 15.69921875 2.09765625 C17.79959884 2.07405647 19.89983444 2.03818483 22 2 C22 2.33 22 2.66 22 3 C16.39 3 10.78 3 5 3 C5.33 4.98 5.66 6.96 6 9 C5.96456553 17.13220973 5.47804166 24.59025906 2 32 C1.01 32 0.02 32 -1 32 C-1 31.34 -1 30.68 -1 30 C-0.34 30 0.32 30 1 30 C1.02902996 25.75001434 1.04680887 21.50005419 1.0625 17.25 C1.07087891 16.0434375 1.07925781 14.836875 1.08789062 13.59375 C1.09111328 12.43359375 1.09433594 11.2734375 1.09765625 10.078125 C1.10551147 8.47565918 1.10551147 8.47565918 1.11352539 6.84082031 C1.01503008 4.37610765 0.71565464 2.34754533 0 0 Z " fill="#75818A" transform="translate(276,438)"/>
<path d="M0 0 C1.8253125 -0.01933594 1.8253125 -0.01933594 3.6875 -0.0390625 C7 0.625 7 0.625 9.40625 2.84765625 C11.85360538 7.11253291 11.81754997 10.8411185 11 15.625 C8.91816745 18.49649318 6.95823029 19.65284647 4 21.625 C1.80859375 21.85546875 1.80859375 21.85546875 -0.5625 21.8125 C-1.34753906 21.80605469 -2.13257813 21.79960937 -2.94140625 21.79296875 C-5 21.625 -5 21.625 -7 20.625 C-9.55768841 15.61193071 -10.9088454 11.27658497 -11 5.625 C-8.07595217 0.55371906 -5.72056196 -0.06059917 0 0 Z M-7 4.625 C-9.2412288 7.9868432 -9.2821233 9.67963301 -8.671875 13.6171875 C-7.42903381 17.33125943 -5.30119963 18.59349253 -2 20.625 C0.5 21.45833333 0.5 21.45833333 3 20.625 C5.8687342 18.73107839 8.43621206 16.75257588 10 13.625 C10.40391526 9.98976262 10.23463713 8.06494463 8.5 4.8125 C5.57020461 2.24892903 3.7752642 1.73982218 -0.03515625 1.484375 C-3.0024458 1.69674562 -4.7316057 2.75691057 -7 4.625 Z " fill="#6D3A18" transform="translate(382,401.375)"/>
<path d="M0 0 C3.77206253 1.50882501 3.77206253 1.50882501 4.8828125 3.90234375 C6.23321159 6.4378833 7.56311247 7.32976144 10 8.8125 C10.70125 9.25207031 11.4025 9.69164062 12.125 10.14453125 C12.74375 10.42683594 13.3625 10.70914062 14 11 C14.66 10.67 15.32 10.34 16 10 C15.8125 11.875 15.8125 11.875 15 14 C11.23109095 16.47334656 7.53023785 16.20074252 3.2265625 15.625 C-0.39368114 14.60879126 -2.36651027 12.63348973 -5 10 C-4.67 9.01 -4.34 8.02 -4 7 C-3.1646875 7.928125 -3.1646875 7.928125 -2.3125 8.875 C1.10551386 12.0158776 3.68179703 12.95025649 8.3125 13.125 C9.6428125 13.063125 9.6428125 13.063125 11 13 C10.18595703 12.63648438 10.18595703 12.63648438 9.35546875 12.265625 C1.80854822 8.7301307 1.80854822 8.7301307 0 5 C-0.1875 2.25 -0.1875 2.25 0 0 Z " fill="#333D43" transform="translate(392,459)"/>
<path d="M0 0 C6.71135664 0.16405538 10.26796574 1.14966489 15 6 C16.35439668 8.70879335 16.06501451 11.00933268 16 14 C16.66 14 17.32 14 18 14 C20.29612756 23.41002278 20.29612756 23.41002278 20 28 C17.78600697 24.20458337 16.99019802 20.24370579 16 16 C15.67 18.64 15.34 21.28 15 24 C14.67 24 14.34 24 14 24 C13.98582031 23.11957031 13.97164063 22.23914063 13.95703125 21.33203125 C14.0105404 13.89645266 14.0105404 13.89645266 10.5 7.75 C9.675 7.1725 8.85 6.595 8 6 C7.67 5.67 7.34 5.34 7 5 C4.67182036 4.63239269 2.3381615 4.29758419 0 4 C0 2.68 0 1.36 0 0 Z " fill="#151719" transform="translate(290,435)"/>
<path d="M0 0 C1.8125 1.125 1.8125 1.125 3 3 C3.375 6.0625 3.375 6.0625 3 9 C-0.45029042 11.30019361 -1.94554358 11.43132515 -6 11 C-8.15502531 7.76746204 -8.46856135 6.74849077 -8 3 C-5.85607122 -0.27231235 -3.76836426 -0.56525464 0 0 Z " fill="#424447" transform="translate(400,444)"/>
<path d="M0 0 C-0.25662245 1.44010481 -0.53090821 2.8770687 -0.8125 4.3125 C-0.96332031 5.11300781 -1.11414063 5.91351563 -1.26953125 6.73828125 C-2.09118099 9.28231974 -2.86765127 10.40591406 -5 12 C-8.78035175 11.91956698 -10.50254595 11.43199957 -13.375 8.9375 C-13.91125 8.298125 -14.4475 7.65875 -15 7 C-14.67 6.34 -14.34 5.68 -14 5 C-12.66666667 4.66666667 -11.33333333 4.33333333 -10 4 C-8.32260138 3.01810813 -6.65532623 2.01866229 -5 1 C-2 0 -2 0 0 0 Z " fill="#DE6915" transform="translate(295,391)"/>
<path d="M0 0 C2.07543945 -0.37231445 2.07543945 -0.37231445 4.61328125 -0.36328125 C5.53173828 -0.36263672 6.45019531 -0.36199219 7.39648438 -0.36132812 C8.83991211 -0.3371582 8.83991211 -0.3371582 10.3125 -0.3125 C11.73852539 -0.31733398 11.73852539 -0.31733398 13.19335938 -0.32226562 C17.85876211 -0.28640299 21.7859789 -0.25526502 26 2 C26 2.66 26 3.32 26 4 C26.78375 4.268125 27.5675 4.53625 28.375 4.8125 C31 6 31 6 33 9 C31.35 9.33 29.7 9.66 28 10 C27.34 9.01 26.68 8.02 26 7 C17.0070898 2.34795822 7.80730629 2.55195047 -2 3 C-1.34 2.01 -0.68 1.02 0 0 Z " fill="#D7BE6C" transform="translate(324,409)"/>
<path d="M0 0 C0.99 0.33 1.98 0.66 3 1 C3.309375 2.093125 3.61875 3.18625 3.9375 4.3125 C5.06913529 8.23994011 5.8320428 9.53603329 9 12 C10.96879323 13.06011943 12.96435867 14.07470849 15 15 C15 15.33 15 15.66 15 16 C8.50611487 16.38963311 4.76108478 15.10714365 -0.375 11.1875 C-2.53488955 8.27995638 -2.45254752 6.5449556 -2 3 C-1.34 2.01 -0.68 1.02 0 0 Z " fill="#838E98" transform="translate(389,457)"/>
<path d="M0 0 C0.99 0.33 1.98 0.66 3 1 C-4.16613207 7.61489114 -13.15113064 11.71463044 -23 12.125 C-23.66 12.08375 -24.32 12.0425 -25 12 C-23.68 11.34 -22.36 10.68 -21 10 C-23.97 9.505 -23.97 9.505 -27 9 C-27 8.67 -27 8.34 -27 8 C-25.72125 7.75765625 -24.4425 7.5153125 -23.125 7.265625 C-21.41654672 6.92768919 -19.70821995 6.58911329 -18 6.25 C-17.16082031 6.09273438 -16.32164062 5.93546875 -15.45703125 5.7734375 C-11.14480578 4.90430679 -7.4591251 3.87007938 -3.5625 1.796875 C-2.386875 1.20390625 -1.21125 0.6109375 0 0 Z " fill="#131415" transform="translate(368,457)"/>
<path d="M0 0 C0.99 0 1.98 0 3 0 C2.87109375 2.23828125 2.87109375 2.23828125 2 5 C-0.52734375 7.10546875 -0.52734375 7.10546875 -3.9375 9.1875 C-4.54851562 9.56261719 -5.15953125 9.93773437 -5.7890625 10.32421875 C-7.84647792 11.5726305 -9.92042269 12.78888914 -12 14 C-12.76844238 14.45197754 -13.53688477 14.90395508 -14.32861328 15.36962891 C-16.71032671 16.76232163 -19.10210471 18.13537824 -21.5 19.5 C-22.25273193 19.9333667 -23.00546387 20.3667334 -23.78100586 20.81323242 C-27.86601452 23.08754424 -31.25532559 24.57958581 -36 25 C-33.1865956 22.78897705 -30.34987697 21.02549549 -27.18359375 19.36328125 C-26.25885254 18.87182617 -25.33411133 18.38037109 -24.38134766 17.87402344 C-23.40987793 17.3587207 -22.4384082 16.84341797 -21.4375 16.3125 C-13.49126147 12.04942412 -6.01357791 7.70482414 1 2 C0.505 1.01 0.505 1.01 0 0 Z " fill="#5E3715" transform="translate(362,370)"/>
<path d="M0 0 C0.433125 1.175625 0.86625 2.35125 1.3125 3.5625 C2.33860789 6.32810508 3.44946056 9.01097663 4.6875 11.6875 C5.92049084 14.79933403 6.29903718 16.71059106 6 20 C5.01 20 4.02 20 3 20 C-0.57870069 14.2000368 -4 7.96410912 -4 1 C-2 0 -2 0 0 0 Z " fill="#89949E" transform="translate(391,420)"/>
<path d="M0 0 C5.75 1.625 5.75 1.625 8 5 C8.78189215 9.7731788 8.41655771 13.22242562 6.125 17.5 C4 20 4 20 2 21 C2.66 15.72 3.32 10.44 4 5 C2.68 4.34 1.36 3.68 0 3 C0 2.01 0 1.02 0 0 Z " fill="#88949D" transform="translate(407,450)"/>
<path d="M0 0 C2.97454134 0.32157204 4.59335278 0.62139742 6.8125 2.6875 C8.3863876 5.75243901 8.48701495 7.59089535 8 11 C6.5 13.875 6.5 13.875 4 16 C1.19811145 16.42242213 -1.1419611 16.23816991 -4 16 C-3.401875 15.731875 -2.80375 15.46375 -2.1875 15.1875 C0.1040169 13.94353368 1.4830937 13.12366882 3 11 C3.5 8 3.5 8 3 5 C1.5833253 3.2488427 1.5833253 3.2488427 0 2 C0 1.34 0 0.68 0 0 Z " fill="#BD981F" transform="translate(384,404)"/>
<path d="M0 0 C3.5 0.125 3.5 0.125 4.5 1.125 C4.6875 4.0625 4.6875 4.0625 4.5 7.125 C2.5 9.125 2.5 9.125 0 9.375 C-2.5 9.125 -2.5 9.125 -4.5 7.125 C-4.6875 4.0625 -4.6875 4.0625 -4.5 1.125 C-3.5 0.125 -3.5 0.125 0 0 Z " fill="#414449" transform="translate(275.5,410.875)"/>
<path d="M0 0 C0.33 0.66 0.66 1.32 1 2 C0.22265625 4.1640625 0.22265625 4.1640625 -0.9375 6.625 C-1.31777344 7.44226563 -1.69804687 8.25953125 -2.08984375 9.1015625 C-2.39019531 9.72804688 -2.69054687 10.35453125 -3 11 C-2.34 11 -1.68 11 -1 11 C-0.67 10.34 -0.34 9.68 0 9 C0 10.32 0 11.64 0 13 C2.31 13 4.62 13 7 13 C7 13.33 7 13.66 7 14 C1.06 14.33 -4.88 14.66 -11 15 C-11.33 13.68 -11.66 12.36 -12 11 C-13.65 11.33 -15.3 11.66 -17 12 C-16.34 11.01 -15.68 10.02 -15 9 C-11.58978257 9.78697325 -8.31114834 10.87119943 -5 12 C-4.8453125 10.948125 -4.8453125 10.948125 -4.6875 9.875 C-3.84996394 6.37257648 -2.60307892 2.60307892 0 0 Z " fill="#323A3F" transform="translate(290,426)"/>
<path d="M0 0 C1.81783244 0.1882755 3.6350022 0.394138 5.44140625 0.67138672 C10.76101893 1.35461178 16.14401083 1.38298608 21.5 1.5625 C23.30597656 1.62727539 23.30597656 1.62727539 25.1484375 1.69335938 C28.09886193 1.79873168 31.04936071 1.90085903 34 2 C34 2.33 34 2.66 34 3 C23.77 3 13.54 3 3 3 C5.64 4.65 8.28 6.3 11 8 C10.67 8.66 10.34 9.32 10 10 C5.01987239 8.49087042 1.75740058 5.44338151 -2 2 C-1.34 1.34 -0.68 0.68 0 0 Z " fill="#6C4E1C" transform="translate(297,477)"/>
<path d="M0 0 C6.25 -0.48076923 6.25 -0.48076923 9.4375 1.5625 C11.61348954 4.95704368 11.55627159 7.0365649 11 11 C9.375 13.9375 9.375 13.9375 7 16 C3.75 16.3125 3.75 16.3125 1 16 C1 15.34 1 14.68 1 14 C2.65 14 4.3 14 6 14 C6.22174933 12.54364629 6.42698698 11.08477044 6.625 9.625 C6.74101562 8.81289063 6.85703125 8.00078125 6.9765625 7.1640625 C6.98429687 6.44992187 6.99203125 5.73578125 7 5 C4.4345406 2.4345406 2.52313332 2.45953913 -1 2 C-0.67 1.34 -0.34 0.68 0 0 Z " fill="#DCAE1D" transform="translate(395,442)"/>
<path d="M0 0 C2.5 0.25 2.5 0.25 4.5 2.25 C4.625 5.375 4.625 5.375 4.5 8.25 C1.125 8.875 1.125 8.875 -2.5 9.25 C-4.5 7.25 -4.5 7.25 -4.75 4.75 C-4.40058445 1.25584452 -3.49415548 0.34941555 0 0 Z " fill="#424546" transform="translate(259.5,437.75)"/>
<path d="M0 0 C1.84765625 0.33984375 1.84765625 0.33984375 4.0625 0.9375 C5.16271484 1.22947266 5.16271484 1.22947266 6.28515625 1.52734375 C7.13400391 1.76130859 7.13400391 1.76130859 8 2 C8 2.66 8 3.32 8 4 C16.9747237 5.25961034 26.92859143 6.46803932 35.7109375 3.92578125 C38.98440638 3.00438918 39.91893401 3.04214479 43 4 C36.46877662 6.60593728 30.69969957 7.51597797 23.6875 7.4375 C22.77121826 7.43282715 21.85493652 7.4281543 20.91088867 7.42333984 C13.32505067 7.25841575 4.64481588 6.64481588 -1 1 C-0.67 0.67 -0.34 0.34 0 0 Z " fill="#5D3513" transform="translate(307,486)"/>
<path d="M0 0 C3.96 0 7.92 0 12 0 C12 0.33 12 0.66 12 1 C8.7 1 5.4 1 2 1 C2.33 2.216875 2.66 3.43375 3 4.6875 C3.86409637 7.87385536 4.09251325 10.69843345 4 14 C4.67546875 13.77183594 5.3509375 13.54367187 6.046875 13.30859375 C6.93890625 13.02113281 7.8309375 12.73367188 8.75 12.4375 C9.63171875 12.14746094 10.5134375 11.85742188 11.421875 11.55859375 C14.13018796 10.97179261 15.39972846 11.24360131 18 12 C14.73348625 13.03502777 11.46122637 14.05053935 8.1875 15.0625 C7.25873047 15.35705078 6.32996094 15.65160156 5.37304688 15.95507812 C4.48037109 16.22900391 3.58769531 16.50292969 2.66796875 16.78515625 C1.84578857 17.04176025 1.0236084 17.29836426 0.17651367 17.56274414 C-2 18 -2 18 -5 17 C-2.69 16.34 -0.38 15.68 2 15 C1.34 10.05 0.68 5.1 0 0 Z " fill="#81571D" transform="translate(324,360)"/>
<path d="M0 0 C0.99 0.33 1.98 0.66 3 1 C2.01 3.31 1.02 5.62 0 8 C-0.66 8 -1.32 8 -2 8 C-3.8530072 12.57801779 -3.81514757 15.21100805 -3 20 C-3.9375 22.875 -3.9375 22.875 -5 25 C-5.99 25 -6.98 25 -8 25 C-7.814375 23.7625 -7.62875 22.525 -7.4375 21.25 C-7.05288777 18.23720423 -6.9125406 15.89989173 -8 13 C-7.34 13 -6.68 13 -6 13 C-5.67 11.68 -5.34 10.36 -5 9 C-4.34 9 -3.68 9 -3 9 C-2.814375 7.88625 -2.814375 7.88625 -2.625 6.75 C-2.04513299 4.19858515 -1.26291261 2.2732427 0 0 Z " fill="#3B474E" transform="translate(273,424)"/>
<path d="M0 0 C0.99 0.33 1.98 0.66 3 1 C3 5.95 3 10.9 3 16 C1.02 16.99 1.02 16.99 -1 18 C-1.02698422 15.56242587 -1.04683099 13.12515085 -1.0625 10.6875 C-1.07087891 9.99720703 -1.07925781 9.30691406 -1.08789062 8.59570312 C-1.10307906 5.4516975 -1.00193327 3.00579981 0 0 Z " fill="#5B2D30" transform="translate(274,373)"/>
<path d="M0 0 C0.66 0 1.32 0 2 0 C3.60725635 3.21451269 3.05748185 6.43612536 3 10 C-7.37357631 14.77676538 -7.37357631 14.77676538 -13 13 C-8.95001278 9.59801074 -4.36373351 7 1 7 C0.67 4.69 0.34 2.38 0 0 Z " fill="#3C3226" transform="translate(315,400)"/>
<path d="M0 0 C0.33 0 0.66 0 1 0 C2.80932836 21.12738806 2.80932836 21.12738806 -1 29 C-2.65 29 -4.3 29 -6 29 C-5.360625 28.79375 -4.72125 28.5875 -4.0625 28.375 C-1.65074923 27.10461791 -1.65074923 27.10461791 -1.25 23.875 C-1.1675 22.92625 -1.085 21.9775 -1 21 C-1.66 20.67 -2.32 20.34 -3 20 C-2.34 19.34 -1.68 18.68 -1 18 C-1 17.01 -1 16.02 -1 15 C-0.84310465 12.43644197 -0.67703016 9.87465271 -0.5 7.3125 C-0.45230469 6.61060547 -0.40460938 5.90871094 -0.35546875 5.18554688 C-0.23787848 3.45696984 -0.11905865 1.72847652 0 0 Z " fill="#312D2A" transform="translate(371,440)"/>
<path d="M0 0 C0.99 0.33 1.98 0.66 3 1 C2.34 1 1.68 1 1 1 C-0.72904895 7.68565595 -1.35563073 14.06172522 -1.65625 20.9609375 C-2 24 -2 24 -4 27 C-4.05814085 23.41673499 -4.09364357 19.83359162 -4.125 16.25 C-4.14175781 15.23421875 -4.15851563 14.2184375 -4.17578125 13.171875 C-4.18222656 12.1921875 -4.18867188 11.2125 -4.1953125 10.203125 C-4.20578613 9.30239258 -4.21625977 8.40166016 -4.22705078 7.47363281 C-3.98381993 4.82372419 -3.42939958 3.23159444 -2 1 C-1.34 0.67 -0.68 0.34 0 0 Z " fill="#505B62" transform="translate(275,437)"/>
<path d="M0 0 C2.97 0 5.94 0 9 0 C8.01 0.66 7.02 1.32 6 2 C13.4790373 3.12374424 20.94764255 3.32840762 28.5 3.5625 C30.4490625 3.62727539 30.4490625 3.62727539 32.4375 3.69335938 C35.62490845 3.7988251 38.81238698 3.90094448 42 4 C42 4.33 42 4.66 42 5 C38.12634335 5.05038777 34.2528201 5.08617252 30.37890625 5.10986328 C28.4322232 5.12456776 26.48563053 5.15001202 24.5390625 5.17578125 C15.8062386 5.22033647 7.60170677 4.47719534 -1 3 C-0.67 2.01 -0.34 1.02 0 0 Z " fill="#1A1B1C" transform="translate(293,466)"/>
<path d="M0 0 C0.99 0 1.98 0 3 0 C3.45761159 3.9354597 3.29742742 5.57244809 1 8.875 C-3.03042707 11.72988584 -5.15724241 11.41040319 -10 11 C-8.23596638 9.05027863 -6.78051427 7.88222717 -4.4375 6.625 C-1.55761861 4.70507907 -0.96950297 3.26105543 0 0 Z " fill="#7B868E" transform="translate(263,450)"/>
<path d="M0 0 C-0.99 0.7734375 -0.99 0.7734375 -2 1.5625 C-4.69562899 4.84779783 -4.37085759 6.846395 -4 11 C-3.773125 11.7425 -3.54625 12.485 -3.3125 13.25 C-3.209375 13.8275 -3.10625 14.405 -3 15 C-3.97753644 16.02196992 -4.9805881 17.01979625 -6 18 C-6.72197162 20.60611077 -6.72197162 20.60611077 -7 23 C-8.95801273 19.76404766 -9.14062853 17.78075464 -8.625 14.0625 C-8.27677454 11.44271078 -8.00008798 8.96986643 -8.0078125 6.32421875 C-7.998662 3.60194575 -7.58072647 2.21301706 -6 0 C-3.40292416 -1.05506206 -2.5386068 -1.2693034 0 0 Z " fill="#623517" transform="translate(394,442)"/>
<path d="M0 0 C2.97 0.495 2.97 0.495 6 1 C4.87548273 3.9719385 3.77706209 6.33440687 2 9 C0.67405895 9.36162029 -0.65938457 9.69728039 -2 10 C-2.33 10.66 -2.66 11.32 -3 12 C-3.66 12 -4.32 12 -5 12 C-4.54738642 10.56068883 -4.08767021 9.12361001 -3.625 7.6875 C-3.24214844 6.48673828 -3.24214844 6.48673828 -2.8515625 5.26171875 C-2 3 -2 3 0 0 Z " fill="#9A9B9E" transform="translate(292,425)"/>
<path d="M0 0 C0.33 0.66 0.66 1.32 1 2 C-0.2375 1.9690625 -0.2375 1.9690625 -1.5 1.9375 C-6.89754015 3.57603897 -9.56682129 7.68674249 -13 12 C-13 10.33333333 -13 8.66666667 -13 7 C-17.455 5.02 -17.455 5.02 -22 3 C-22 2.34 -22 1.68 -22 1 C-19.38848668 1.43525222 -17.27441704 1.85031798 -14.9375 3.125 C-13.04765064 4.17086963 -13.04765064 4.17086963 -11 3.8125 C-8.89573 3.06972284 -8.89573 3.06972284 -7.0625 1.4375 C-4.53166529 -0.3264151 -3.01962166 -0.25163514 0 0 Z " fill="#574D3D" transform="translate(306,413)"/>
<path d="M0 0 C3.7704918 1.50819672 3.7704918 1.50819672 4.875 3.875 C6.51822246 6.97886464 9.05425485 8.20693774 12 10 C11.67 10.99 11.34 11.98 11 13 C1.91088654 8.94120349 1.91088654 8.94120349 0 5 C-0.1875 2.25 -0.1875 2.25 0 0 Z " fill="#44505A" transform="translate(392,459)"/>
<path d="M0 0 C-1 2 -2 4 -3 6 C-3.22622081 7.70363822 -3.40888473 9.41328701 -3.5625 11.125 C-3.68818359 12.49011719 -3.68818359 12.49011719 -3.81640625 13.8828125 C-3.87699219 14.58148438 -3.93757812 15.28015625 -4 16 C-4.33 15.34 -4.66 14.68 -5 14 C-5.66 14 -6.32 14 -7 14 C-7.08114106 12.22992286 -7.13925505 10.45877902 -7.1875 8.6875 C-7.22230469 7.70136719 -7.25710937 6.71523438 -7.29296875 5.69921875 C-7 3 -7 3 -5.73828125 1.14453125 C-4 0 -4 0 0 0 Z " fill="#85919B" transform="translate(251,442)"/>
<path d="M0 0 C0.99 0 1.98 0 3 0 C3.49371094 1.20398438 3.98742187 2.40796875 4.49609375 3.6484375 C5.14318938 5.22397468 5.79032697 6.79949462 6.4375 8.375 C6.92573242 9.56609375 6.92573242 9.56609375 7.42382812 10.78125 C7.73642578 11.54179687 8.04902344 12.30234375 8.37109375 13.0859375 C8.65911865 13.7876709 8.94714355 14.4894043 9.24389648 15.21240234 C9.78601836 16.49409959 10.37764255 17.75528511 11 19 C9.68 19 8.36 19 7 19 C6.2066145 16.95900065 5.4153697 14.9171691 4.625 12.875 C4.18414062 11.73804688 3.74328125 10.60109375 3.2890625 9.4296875 C2.11545297 6.30717487 1.03157226 3.17184369 0 0 Z " fill="#3E4950" transform="translate(381,423)"/>
<path d="M0 0 C0.33 0.99 0.66 1.98 1 3 C-0.43554025 3.50559908 -1.8735202 4.0042749 -3.3125 4.5 C-4.51326172 4.91765625 -4.51326172 4.91765625 -5.73828125 5.34375 C-8 6 -8 6 -11 6 C-10.8125 3.625 -10.8125 3.625 -10 1 C-6.41025704 -1.19373181 -3.97935131 -1.13695752 0 0 Z " fill="#AC6F21" transform="translate(366,427)"/>
<path d="M0 0 C0 0.99 0 1.98 0 3 C-0.80824219 3.32613281 -1.61648438 3.65226562 -2.44921875 3.98828125 C-3.51785156 4.42527344 -4.58648437 4.86226563 -5.6875 5.3125 C-6.74324219 5.74175781 -7.79898437 6.17101562 -8.88671875 6.61328125 C-12.00616647 7.92296967 -12.00616647 7.92296967 -14.75390625 9.6796875 C-17 11 -17 11 -19.25 10.8125 C-21 10 -21 10 -22 8 C-20.6078125 8.0309375 -20.6078125 8.0309375 -19.1875 8.0625 C-15.97713989 8.15769604 -15.97713989 8.15769604 -13 7 C-13 6.34 -13 5.68 -13 5 C-11.39967863 4.15930585 -9.79458829 3.32768495 -8.1875 2.5 C-6.84751953 1.80390625 -6.84751953 1.80390625 -5.48046875 1.09375 C-3 0 -3 0 0 0 Z " fill="#5E5E52" transform="translate(372,410)"/>
<path d="M0 0 C0 0.66 0 1.32 0 2 C-1.98 2.66 -3.96 3.32 -6 4 C-6.16687448 6.41645782 -6.16687448 6.41645782 -6 9 C-3.8614515 11.1385485 -2.86724686 11.42655063 0 12 C0 12.66 0 13.32 0 14 C-3.375 13.6875 -3.375 13.6875 -7 13 C-9.46324069 9.30513897 -9.38991688 7.36706908 -9 3 C-6.82246161 -0.75020501 -4.02857537 -0.26857169 0 0 Z " fill="#D39F1D" transform="translate(262,436)"/>
<path d="M0 0 C2 0 2 0 3.625 1 C5.79036479 4.14962151 5.54627098 7.29920647 5 11 C3.9375 13.0625 3.9375 13.0625 2 14 C-1.6875 13.6875 -1.6875 13.6875 -5 13 C-5 12.67 -5 12.34 -5 12 C-3.02 11.34 -1.04 10.68 1 10 C1 8.02 1 6.04 1 4 C-1.97 3.505 -1.97 3.505 -5 3 C-5 2.67 -5 2.34 -5 2 C-3.35 1.67 -1.7 1.34 0 1 C0 0.67 0 0.34 0 0 Z " fill="#C3681A" transform="translate(278,408)"/>
<path d="M0 0 C0.99 0.66 1.98 1.32 3 2 C0.69 2.66 -1.62 3.32 -4 4 C-4.0270043 5.45823212 -4.04639787 6.91660675 -4.0625 8.375 C-4.07410156 9.18710937 -4.08570313 9.99921875 -4.09765625 10.8359375 C-4.14466334 13.04937142 -4.14466334 13.04937142 -3 15 C-1.02111039 15.72693904 0.97954558 16.39816251 3 17 C2.67 17.66 2.34 18.32 2 19 C-3.75 18.25 -3.75 18.25 -6 16 C-6.82440404 12.34243277 -7.14408064 8.74609658 -7 5 C-4.86386841 1.79580262 -3.6309737 1.21032457 0 0 Z " fill="#774C18" transform="translate(258,433)"/>
<path d="M0 0 C0.99 0 1.98 0 3 0 C3.33 2.31 3.66 4.62 4 7 C4.66 7 5.32 7 6 7 C6.67260351 8.76858691 7.33788395 10.53996016 8 12.3125 C8.37125 13.29863281 8.7425 14.28476562 9.125 15.30078125 C10 18 10 18 10 21 C9.01 21 8.02 21 7 21 C6.7525 20.05125 6.505 19.1025 6.25 18.125 C5.10108662 14.06660812 3.52531197 10.22103057 1.90234375 6.33203125 C1.08895629 4.22990002 0.48987224 2.19684973 0 0 Z " fill="#4C575D" transform="translate(390,419)"/>
<path d="M0 0 C2.49040942 2.49040942 2.32391014 3.43154357 2.375 6.875 C2.30941754 10.3760944 2.28276945 11.60997318 0.1875 14.5 C-5.30268174 18.26469605 -5.30268174 18.26469605 -9.5625 18.1875 C-10.34753906 18.18105469 -11.13257813 18.17460937 -11.94140625 18.16796875 C-14 18 -14 18 -16 17 C-16.625 14.4375 -16.625 14.4375 -17 12 C-16.113125 12.66 -15.22625 13.32 -14.3125 14 C-10.36521381 16.39637333 -10.36521381 16.39637333 -6 16 C-3.35028458 14.19337585 -1.44379471 12.88758942 0 10 C0.06996014 8.29297265 0.08440154 6.58331997 0.0625 4.875 C0.05347656 3.96492188 0.04445313 3.05484375 0.03515625 2.1171875 C0.02355469 1.41851562 0.01195312 0.71984375 0 0 Z " fill="#6A4725" transform="translate(391,405)"/>
<path d="M0 0 C0.33 0 0.66 0 1 0 C1 2.97 1 5.94 1 9 C2.65 9 4.3 9 6 9 C6 9.33 6 9.66 6 10 C5.11699219 10.10957031 4.23398437 10.21914063 3.32421875 10.33203125 C-4.32736478 11.34292789 -11.61868591 12.74041406 -19 15 C-18.67 14.34 -18.34 13.68 -18 13 C-15.93359375 12.3671875 -15.93359375 12.3671875 -13.4375 11.875 C-12.61121094 11.70742188 -11.78492188 11.53984375 -10.93359375 11.3671875 C-9.97646484 11.18542969 -9.97646484 11.18542969 -9 11 C-9 10.34 -9 9.68 -9 9 C-4.545 8.505 -4.545 8.505 0 8 C0 5.36 0 2.72 0 0 Z " fill="#71705A" transform="translate(327,399)"/>
<path d="M0 0 C0.66 0.33 1.32 0.66 2 1 C2 4.96 2 8.92 2 13 C0.68 13 -0.64 13 -2 13 C-2 9.04 -2 5.08 -2 1 C-1.34 0.67 -0.68 0.34 0 0 Z " fill="#8B97A1" transform="translate(281,371)"/>
<path d="M0 0 C0.28571429 8.57142857 0.28571429 8.57142857 -2 12 C-2.99 12 -3.98 12 -5 12 C-4.5205537 7.78087253 -3.83374881 5.20336822 -1 2 C-4.54518884 3.39759905 -4.54518884 3.39759905 -8 5 C-7.67 3.35 -7.34 1.7 -7 0 C-2.25 -1.125 -2.25 -1.125 0 0 Z " fill="#505659" transform="translate(252,440)"/>
<path d="M0 0 C0.66 0 1.32 0 2 0 C2.31806054 7.7276932 2.32270836 13.93924474 -1 21 C-1.99 21 -2.98 21 -4 21 C-4 20.34 -4 19.68 -4 19 C-3.34 19 -2.68 19 -2 19 C-1.34 12.73 -0.68 6.46 0 0 Z " fill="#8E9AA4" transform="translate(279,449)"/>
<path d="M0 0 C0.66 0.33 1.32 0.66 2 1 C2.34645484 5.8503678 1.69198859 8.91560352 -1 13 C-5.29580743 15.82295917 -9.17453977 14.81787462 -14 14 C-14 13.01 -14 12.02 -14 11 C-13.34 11.33 -12.68 11.66 -12 12 C-8.32670036 12.13357453 -5.50147041 12.1671568 -2 11 C-1.19436362 8.89415562 -1.19436362 8.89415562 -0.8125 6.4375 C-0.57466797 5.19806641 -0.57466797 5.19806641 -0.33203125 3.93359375 C-0.22246094 3.29550781 -0.11289062 2.65742188 0 2 C-0.66 1.67 -1.32 1.34 -2 1 C-1.34 0.67 -0.68 0.34 0 0 Z " fill="#46525C" transform="translate(266,448)"/>
<path d="M0 0 C0.99 0.33 1.98 0.66 3 1 C1.62318268 3.81708245 0.16486381 6.55443471 -1.4375 9.25 C-1.84871094 9.95640625 -2.25992187 10.6628125 -2.68359375 11.390625 C-3.11800781 11.92171875 -3.55242187 12.4528125 -4 13 C-4.99 13 -5.98 13 -7 13 C-5.58832253 7.73829306 -3.25149768 4.27828642 0 0 Z " fill="#8B969F" transform="translate(268,422)"/>
<path d="M0 0 C0.66 0 1.32 0 2 0 C1.01 2.97 0.02 5.94 -1 9 C-1.66 9 -2.32 9 -3 9 C-3.33 10.32 -3.66 11.64 -4 13 C-5.32 12.34 -6.64 11.68 -8 11 C-6.85539001 9.35331565 -5.70927742 7.70767566 -4.5625 6.0625 C-3.92441406 5.14597656 -3.28632813 4.22945313 -2.62890625 3.28515625 C-1 1 -1 1 0 0 Z " fill="#565F66" transform="translate(271,424)"/>
<path d="M0 0 C3.95820859 0.56545837 6.6659053 1.80902348 10 4 C9.67 4.99 9.34 5.98 9 7 C5.26512223 6.5020163 3.18762365 6.12508244 0 4 C0 2.68 0 1.36 0 0 Z " fill="#818C95" transform="translate(284,416)"/>
<path d="M0 0 C4.29328932 2.86219288 5.00321887 6.0437827 6 11 C6.233935 15.34729212 6.18146512 19.65155811 6 24 C4.02 24.99 4.02 24.99 2 26 C2.66 25.01 3.32 24.02 4 23 C4.23498602 15.02166519 2.68233333 7.47341927 0 0 Z " fill="#6F411B" transform="translate(365,425)"/>
<path d="M0 0 C0.99 0.33 1.98 0.66 3 1 C2.34 1 1.68 1 1 1 C0.7525 1.61875 0.505 2.2375 0.25 2.875 C-1.27032827 5.45955805 -2.21654552 5.95620457 -5 7 C-7.578125 6.9765625 -7.578125 6.9765625 -10.25 6.625 C-11.14203125 6.51414062 -12.0340625 6.40328125 -12.953125 6.2890625 C-13.96632813 6.14597656 -13.96632813 6.14597656 -15 6 C-15 5.67 -15 5.34 -15 5 C-14.16855469 4.80664062 -13.33710938 4.61328125 -12.48046875 4.4140625 C-11.39378906 4.15367187 -10.30710937 3.89328125 -9.1875 3.625 C-8.10855469 3.36976563 -7.02960938 3.11453125 -5.91796875 2.8515625 C-2.84466657 2.11267119 -2.84466657 2.11267119 0 0 Z " fill="#995E17" transform="translate(355,481)"/>
<path d="M0 0 C3.1305429 -0.39964378 5.13083761 -0.52149743 7.875 1.125 C9.4682099 3.78034983 9.20214032 5.96789518 9 9 C8.67 9 8.34 9 8 9 C7.34 7.02 6.68 5.04 6 3 C4.35 3 2.7 3 1 3 C-0.00217064 6.58327753 -0.00217064 6.58327753 1 10 C3.52733235 10.65555119 3.52733235 10.65555119 6 11 C6 11.33 6 11.66 6 12 C3.125 12.1875 3.125 12.1875 0 12 C-2.31332486 8.53001271 -2.33957563 7.07490752 -2 3 C-1.34 2.01 -0.68 1.02 0 0 Z " fill="#544734" transform="translate(379,406)"/>
<path d="M0 0 C0 3.3 0 6.6 0 10 C-1.32 10 -2.64 10 -4 10 C-4.33 7.03 -4.66 4.06 -5 1 C-3 0 -3 0 0 0 Z " fill="#8B969F" transform="translate(322,398)"/>
<path d="M0 0 C-0.33 0.99 -0.66 1.98 -1 3 C-1.7425 3.04125 -2.485 3.0825 -3.25 3.125 C-7.08892782 4.34647703 -7.99237552 6.63005891 -10 10 C-10.33 10 -10.66 10 -11 10 C-11.36627907 4.50581395 -11.36627907 4.50581395 -9.6875 2.1875 C-6.52064738 -0.04102592 -3.74110403 -0.10111092 0 0 Z " fill="#DD6B16" transform="translate(385,403)"/>
<path d="M0 0 C1.65 0 3.3 0 5 0 C5.33 2.31 5.66 4.62 6 7 C4.02 7 2.04 7 0 7 C0 4.69 0 2.38 0 0 Z " fill="#E6C746" transform="translate(320,363)"/>
<path d="M0 0 C1.32 0 2.64 0 4 0 C4 0.66 4 1.32 4 2 C5.98 2 7.96 2 10 2 C10 2.33 10 2.66 10 3 C7.69 3 5.38 3 3 3 C3.66 3.94875 4.32 4.8975 5 5.875 C7 9 7 9 7 11 C5 11 5 11 3.45703125 9.609375 C2.91433594 8.99578125 2.37164062 8.3821875 1.8125 7.75 C0.98685547 6.84507812 0.98685547 6.84507812 0.14453125 5.921875 C-1 4 -1 4 -0.67578125 1.765625 C-0.45277344 1.18296875 -0.22976563 0.6003125 0 0 Z " fill="#352E29" transform="translate(288,467)"/>
<path d="M0 0 C3.375 0.25 3.375 0.25 7 1 C9.14293724 4.02209097 9.22051817 6.62030953 9.125 10.25 C9.10695313 11.14203125 9.08890625 12.0340625 9.0703125 12.953125 C9.03550781 13.96632813 9.03550781 13.96632813 9 15 C8.67 15 8.34 15 8 15 C7.65820312 12.02148438 7.65820312 12.02148438 7.31640625 9.04296875 C7.02829265 6.80603607 7.02829265 6.80603607 6 4 C2.99152582 2.77479736 2.99152582 2.77479736 0 2 C0 1.34 0 0.68 0 0 Z " fill="#4B5960" transform="translate(407,448)"/>
<path d="M0 0 C0.66 0.33 1.32 0.66 2 1 C0.67997942 4.57294032 -0.89521388 7.63953492 -3 10.8125 C-3.515625 11.60269531 -4.03125 12.39289063 -4.5625 13.20703125 C-5.036875 13.79871094 -5.51125 14.39039063 -6 15 C-6.66 15 -7.32 15 -8 15 C-7.67 13.68 -7.34 12.36 -7 11 C-6.34 11 -5.68 11 -5 11 C-4.9175 10.29875 -4.835 9.5975 -4.75 8.875 C-3.82972275 5.34727053 -2.11873023 2.93888386 0 0 Z " fill="#425156" transform="translate(267,419)"/>
<path d="M0 0 C6.4 -0.49230769 6.4 -0.49230769 9.4375 2 C10.2109375 2.99 10.2109375 2.99 11 4 C10.34 5.98 9.68 7.96 9 10 C8.67 10 8.34 10 8 10 C7.814375 9.05125 7.62875 8.1025 7.4375 7.125 C6.26599195 3.61628301 6.26599195 3.61628301 2.375 2.625 C1.26125 2.41875 0.1475 2.2125 -1 2 C-0.67 1.34 -0.34 0.68 0 0 Z " fill="#CF9F1E" transform="translate(395,442)"/>
<path d="M0 0 C4.75 0.75 4.75 0.75 7 3 C7.125 6.625 7.125 6.625 7 10 C6.34 10 5.68 10 5 10 C4.731875 9.236875 4.46375 8.47375 4.1875 7.6875 C3.04199033 5.09503074 2.00288478 3.91184456 0 2 C0 1.34 0 0.68 0 0 Z " fill="#D7AA1E" transform="translate(384,404)"/>
<path d="M0 0 C-0.6875 1.9375 -0.6875 1.9375 -2 4 C-4.375 5 -4.375 5 -7 5 C-9.3125 3.0625 -9.3125 3.0625 -11 1 C-9.54182203 0.83197949 -8.0834516 0.66562857 -6.625 0.5 C-5.81289063 0.4071875 -5.00078125 0.314375 -4.1640625 0.21875 C-2 0 -2 0 0 0 Z " fill="#A54E10" transform="translate(293,398)"/>
<path d="M0 0 C0.66 0.33 1.32 0.66 2 1 C0.56351736 2.12629875 -0.87422585 3.2509899 -2.3125 4.375 C-3.11300781 5.00148438 -3.91351563 5.62796875 -4.73828125 6.2734375 C-6.44663212 7.57756718 -8.21172726 8.80781817 -10 10 C-10.99 9.67 -11.98 9.34 -13 9 C-11.37633534 5.75267068 -8.24612161 5.29844864 -5 4 C-5 3.34 -5 2.68 -5 2 C-2.625 0.9375 -2.625 0.9375 0 0 Z " fill="#AB8D18" transform="translate(362,371)"/>
<path d="M0 0 C0.7425 0.2475 1.485 0.495 2.25 0.75 C-0.83235671 4.17484079 -4.64214317 6.69607159 -8.75 8.75 C-7.21419612 4.14258836 -5.47554607 -0.49777692 0 0 Z " fill="#E3D183" transform="translate(287.75,359.25)"/>
<path d="M0 0 C0.66 1.32 1.32 2.64 2 4 C1.14535156 4.04898437 0.29070312 4.09796875 -0.58984375 4.1484375 C-1.69457031 4.22320312 -2.79929687 4.29796875 -3.9375 4.375 C-5.03964844 4.44460938 -6.14179688 4.51421875 -7.27734375 4.5859375 C-8.62505859 4.79089844 -8.62505859 4.79089844 -10 5 C-10.33 5.66 -10.66 6.32 -11 7 C-11.33 5.68 -11.66 4.36 -12 3 C-6.06 2.505 -6.06 2.505 0 2 C0 1.34 0 0.68 0 0 Z " fill="#9D7619" transform="translate(342,432)"/>
<path d="M0 0 C-2.66892697 3.45390549 -5.84151743 4.12452998 -10 5 C-12.22265625 4.546875 -12.22265625 4.546875 -14 4 C-4.58997722 -0.59225513 -4.58997722 -0.59225513 0 0 Z " fill="#685632" transform="translate(362,471)"/>
<path d="M0 0 C1.32 0.33 2.64 0.66 4 1 C5.0257259 5.41062136 5.03684712 7.92630576 3 12 C2.01 12 1.02 12 0 12 C0.185625 10.7625 0.37125 9.525 0.5625 8.25 C0.94711223 5.23720423 1.0874594 2.89989173 0 0 Z " fill="#673716" transform="translate(265,437)"/>
<path d="M0 0 C5.50102837 0.41257713 9.76201664 2.54722675 14 6 C14 6.66 14 7.32 14 8 C10.51669784 7.35494404 7.90567134 6.01782732 5 4 C5 3.34 5 2.68 5 2 C3.35 1.67 1.7 1.34 0 1 C0 0.67 0 0.34 0 0 Z " fill="#6A4724" transform="translate(345,409)"/>
<path d="M0 0 C6.75 -0.125 6.75 -0.125 9 1 C9 1.66 9 2.32 9 3 C6.36 3.66 3.72 4.32 1 5 C0.67 3.35 0.34 1.7 0 0 Z " fill="#DD981C" transform="translate(361,359)"/>
<path d="M0 0 C0.66 0.66 1.32 1.32 2 2 C5.58343976 2.16677282 5.58343976 2.16677282 9 2 C9 2.66 9 3.32 9 4 C7.35 4 5.7 4 4 4 C4 4.66 4 5.32 4 6 C5.32 6.33 6.64 6.66 8 7 C1.47692308 6.38461538 1.47692308 6.38461538 -0.9375 4.4375 C-1.288125 3.963125 -1.63875 3.48875 -2 3 C-1.34 3 -0.68 3 0 3 C0 2.01 0 1.02 0 0 Z " fill="#BE791D" transform="translate(392,452)"/>
<path d="M0 0 C0.66 0 1.32 0 2 0 C2.25 2.75 2.25 2.75 2 6 C0 8.375 0 8.375 -2 10 C-2.99 9.67 -3.98 9.34 -5 9 C-4.54625 8.62875 -4.0925 8.2575 -3.625 7.875 C-1.52970606 5.45735315 -0.87986715 3.04569398 0 0 Z " fill="#8A96A0" transform="translate(264,450)"/>
<path d="M0 0 C0.33 0.66 0.66 1.32 1 2 C0.0625 4.0625 0.0625 4.0625 -2 6 C-5.12939277 6.26937996 -8.04252301 6.07748687 -11 5 C-12.27734375 2.9375 -12.27734375 2.9375 -13 1 C-11.515 1.99 -11.515 1.99 -10 3 C-6.47704517 3.37478243 -4.65118137 3.41127245 -1.625 1.5 C-0.820625 0.7575 -0.820625 0.7575 0 0 Z " fill="#774F23" transform="translate(282,419)"/>
<path d="M0 0 C0.33 0 0.66 0 1 0 C1.66 2.64 2.32 5.28 3 8 C4.65 8 6.3 8 8 8 C8 8.66 8 9.32 8 10 C2.65034965 10.35664336 2.65034965 10.35664336 0.0625 8.9375 C-1.61676907 5.87530347 -0.68621125 3.30629059 0 0 Z " fill="#C5951F" transform="translate(270,413)"/>
<path d="M0 0 C1.32 0.33 2.64 0.66 4 1 C3.01 1.33 2.02 1.66 1 2 C1.33 3.32 1.66 4.64 2 6 C1.01 6 0.02 6 -1 6 C-1 7.98 -1 9.96 -1 12 C-3 10 -3 10 -3.3125 7.125 C-2.9736202 3.73620199 -2.27183419 2.46115371 0 0 Z " fill="#381E0A" transform="translate(308,362)"/>
<path d="M0 0 C0.66 0.33 1.32 0.66 2 1 C1.3125 3.375 1.3125 3.375 0 6 C-2.625 7.3125 -2.625 7.3125 -5 8 C-4.67 6.68 -4.34 5.36 -4 4 C-3.34 4 -2.68 4 -2 4 C-1.34 2.68 -0.68 1.36 0 0 Z " fill="#444B4F" transform="translate(261,450)"/>
<path d="M0 0 C-4.95 2.475 -4.95 2.475 -10 5 C-10.33 4.34 -10.66 3.68 -11 3 C-10 1 -10 1 -7.1875 -0.1875 C-4 -1 -4 -1 0 0 Z " fill="#D7B11D" transform="translate(358,375)"/>
<path d="M0 0 C4.95 0 9.9 0 15 0 C15 0.33 15 0.66 15 1 C12.36 1 9.72 1 7 1 C7.33 1.99 7.66 2.98 8 4 C2.25 2.25 2.25 2.25 0 0 Z " fill="#C6A31E" transform="translate(311,480)"/>
<path d="M0 0 C0.721875 0.61875 1.44375 1.2375 2.1875 1.875 C4.78381938 3.83666353 6.94671666 4.95316 10 6 C8.02 6.99 8.02 6.99 6 8 C1.3125 4.38671875 1.3125 4.38671875 0 3 C0 2.01 0 1.02 0 0 Z " fill="#3E4A50" transform="translate(387,466)"/>
<path d="M0 0 C0.99 0 1.98 0 3 0 C3.33 2.31 3.66 4.62 4 7 C4.66 7 5.32 7 6 7 C6 8.65 6 10.3 6 12 C3.32098068 9.68118495 2.33795597 7.68185532 1.3125 4.3125 C1.06113281 3.50425781 0.80976563 2.69601562 0.55078125 1.86328125 C0.36902344 1.24839844 0.18726563 0.63351562 0 0 Z " fill="#3D4955" transform="translate(390,419)"/>
<path d="M0 0 C5.34965035 -0.35664336 5.34965035 -0.35664336 7.9375 1.0625 C9.61676907 4.12469653 8.68621125 6.69370941 8 10 C7.67 10 7.34 10 7 10 C6.34 7.03 5.68 4.06 5 1 C3.35 1 1.7 1 0 1 C0 0.67 0 0.34 0 0 Z " fill="#AE601C" transform="translate(257,435)"/>
<path d="M0 0 C0.33 0.99 0.66 1.98 1 3 C3.64 2.34 6.28 1.68 9 1 C8.67 2.32 8.34 3.64 8 5 C5.69 5 3.38 5 1 5 C0.67 3.35 0.34 1.7 0 0 Z " fill="#4F5A63" transform="translate(345,425)"/>
<path d="M0 0 C0.66 1.32 1.32 2.64 2 4 C-4.4 8.06153846 -4.4 8.06153846 -7.4375 7.75 C-7.953125 7.5025 -8.46875 7.255 -9 7 C-3.25 4 -3.25 4 -1 4 C-0.67 2.68 -0.34 1.36 0 0 Z " fill="#3C484E" transform="translate(373,417)"/>
<path d="M0 0 C1.62463842 -0.05395478 3.24978541 -0.09277195 4.875 -0.125 C5.77992188 -0.14820313 6.68484375 -0.17140625 7.6171875 -0.1953125 C10 0 10 0 12 2 C11.67 2.99 11.34 3.98 11 5 C10.319375 4.505 9.63875 4.01 8.9375 3.5 C5.40534991 1.69634889 2.91363009 1.76978647 -1 2 C-0.67 1.34 -0.34 0.68 0 0 Z " fill="#814F17" transform="translate(379,402)"/>
<path d="M0 0 C0 0.99 0 1.98 0 3 C-2.64 3.66 -5.28 4.32 -8 5 C-7.1875 3.0625 -7.1875 3.0625 -6 1 C-3 0 -3 0 0 0 Z " fill="#E19B1B" transform="translate(361,362)"/>
<path d="M0 0 C1 2 1 2 0.44140625 3.9453125 C0.15136719 4.66460937 -0.13867188 5.38390625 -0.4375 6.125 C-0.72496094 6.84945313 -1.01242187 7.57390625 -1.30859375 8.3203125 C-1.53675781 8.87460937 -1.76492188 9.42890625 -2 10 C-2.99 10 -3.98 10 -5 10 C-5 9.34 -5 8.68 -5 8 C-4.34 8 -3.68 8 -3 8 C-2.87625 7.05125 -2.7525 6.1025 -2.625 5.125 C-2 2 -2 2 0 0 Z " fill="#808C95" transform="translate(280,460)"/>
<path d="M0 0 C1 3 1 3 0.0625 5.1875 C-0.4634375 6.0846875 -0.4634375 6.0846875 -1 7 C-1.99 7 -2.98 7 -4 7 C-3.67 5.02 -3.34 3.04 -3 1 C-2.01 0.67 -1.02 0.34 0 0 Z " fill="#454F56" transform="translate(251,445)"/>
<path d="M0 0 C0.99 0.66 1.98 1.32 3 2 C1.88625 2.2475 0.7725 2.495 -0.375 2.75 C-4.04615198 3.61005339 -4.04615198 3.61005339 -5.4375 6.125 C-5.623125 6.74375 -5.80875 7.3625 -6 8 C-6.33 7.01 -6.66 6.02 -7 5 C-4.63707344 2.47411298 -3.33537489 1.11179163 0 0 Z " fill="#643C17" transform="translate(258,433)"/>
<path d="M0 0 C0.33 0 0.66 0 1 0 C1.33 2.31 1.66 4.62 2 7 C-0.57213134 8.61949011 -1.67669159 9.04408751 -4.75 8.625 C-5.86375 8.315625 -5.86375 8.315625 -7 8 C-7 7.67 -7 7.34 -7 7 C-5.02 6.34 -3.04 5.68 -1 5 C-0.67 3.35 -0.34 1.7 0 0 Z " fill="#B96D1D" transform="translate(280,413)"/>
<path d="M0 0 C2.97 1.98 2.97 1.98 6 4 C5.67 4.66 5.34 5.32 5 6 C3.68 6 2.36 6 1 6 C0.67 4.02 0.34 2.04 0 0 Z " fill="#E6BD76" transform="translate(351,413)"/>
<path d="M0 0 C0.99 0.33 1.98 0.66 3 1 C3.33 1.99 3.66 2.98 4 4 C3 5 3 5 0.4375 5.0625 C-0.7690625 5.0315625 -0.7690625 5.0315625 -2 5 C-2.33 4.34 -2.66 3.68 -3 3 C-2.01 2.01 -1.02 1.02 0 0 Z " fill="#180B06" transform="translate(310,371)"/>
<path d="M0 0 C1.32 0 2.64 0 4 0 C3.34 1.98 2.68 3.96 2 6 C1.01 6 0.02 6 -1 6 C-0.67 4.02 -0.34 2.04 0 0 Z " fill="#59656E" transform="translate(279,384)"/>
<path d="M0 0 C0 0.99 0 1.98 0 3 C-2.31 3.66 -4.62 4.32 -7 5 C-5.22678182 1.07358831 -4.52021524 0 0 0 Z " fill="#47575C" transform="translate(372,410)"/>
<path d="M0 0 C-0.33 0.99 -0.66 1.98 -1 3 C-3.31 3.33 -5.62 3.66 -8 4 C-7.67 3.01 -7.34 2.02 -7 1 C-4.53721199 -0.231394 -2.7204945 -0.07159196 0 0 Z " fill="#DE881A" transform="translate(385,403)"/>
<path d="M0 0 C0.99 0.66 1.98 1.32 3 2 C2.525625 2.391875 2.05125 2.78375 1.5625 3.1875 C-0.35179633 5.40808374 -0.61266988 7.13375709 -1 10 C-2.125 8.3125 -2.125 8.3125 -3 6 C-1.7 1.7 -1.7 1.7 0 0 Z " fill="#464D51" transform="translate(388,455)"/>
<path d="M0 0 C-0.33 0.99 -0.66 1.98 -1 3 C-3.31 3.33 -5.62 3.66 -8 4 C-4.5 0 -4.5 0 0 0 Z " fill="#DE902F" transform="translate(365,426)"/>
<path d="M0 0 C0.66 0 1.32 0 2 0 C0.52307692 4.67692308 0.52307692 4.67692308 -2.125 6.3125 C-3.053125 6.6528125 -3.053125 6.6528125 -4 7 C-2.92598892 4.08482708 -2.22189824 2.22189824 0 0 Z " fill="#5A656E" transform="translate(271,424)"/>
<path d="M0 0 C4.5 3 4.5 3 9 6 C3.375 6.25 3.375 6.25 0 4 C0 2.68 0 1.36 0 0 Z " fill="#575F66" transform="translate(283,418)"/>
<path d="M0 0 C1.33597652 0.80814651 2.668725 1.62163181 4 2.4375 C5.11375 3.11619141 5.11375 3.11619141 6.25 3.80859375 C6.8275 4.20175781 7.405 4.59492188 8 5 C8 5.33 8 5.66 8 6 C5.69 5.67 3.38 5.34 1 5 C0.67 3.35 0.34 1.7 0 0 Z " fill="#6A3817" transform="translate(374,417)"/>
<path d="M0 0 C0.66 0 1.32 0 2 0 C1.67 2.97 1.34 5.94 1 9 C0.67 7.68 0.34 6.36 0 5 C-0.66 4.67 -1.32 4.34 -2 4 C-1.34 2.68 -0.68 1.36 0 0 Z " fill="#282A2C" transform="translate(371,455)"/>
<path d="M0 0 C2.31 0 4.62 0 7 0 C7.33 0.66 7.66 1.32 8 2 C4.52176885 3.15941038 2.54104422 2.70820884 -1 2 C-0.67 1.34 -0.34 0.68 0 0 Z " fill="#E28B1A" transform="translate(395,442)"/>
<path d="M0 0 C1.04449911 3.13349732 0.93423645 3.98968256 0 7 C-0.99 7 -1.98 7 -3 7 C-1.125 1.125 -1.125 1.125 0 0 Z " fill="#838D95" transform="translate(264,428)"/>
<path d="M0 0 C0.66 0.66 1.32 1.32 2 2 C0 4 0 4 -1.9453125 4.1953125 C-3.96354167 4.13020833 -5.98177083 4.06510417 -8 4 C-5.33333333 2.66666667 -2.66666667 1.33333333 0 0 Z " fill="#DFA21C" transform="translate(388,416)"/>
</svg>
